<svg xmlns="http://www.w3.org/2000/svg" id="svg2" x="0" y="0" viewBox="0 0 72.1 27.4" xml:space="preserve"><style>.st0{fill:#a2a0a4}.st1{fill:#fff}.st2{fill:#d0cfcf}.st4{fill:#da0846}.st5{fill:#00933c}.st6{fill:#fcc200}.st7{fill:#e3518d}.st8{fill:#e74e0f}.st9{fill:#2c87c1}.st10{fill:#f2a3b9}</style><path class="st0" d="M.9 2.5c-.3 0-.6.3-.6.6s.3.6.6.6.6-.3.6-.6c0-.4-.3-.6-.6-.6M.9 9.2c-.3 0-.6.3-.6.6s.3.6.6.6.6-.3.6-.6-.3-.6-.6-.6M7.6 5.8c-.3 0-.6.3-.6.6.1.4.3.6.6.6.4 0 .6-.2.6-.6 0-.3-.2-.6-.6-.6M11 1.7c-.3 0-.6.3-.6.6s.3.6.6.6.6-.3.6-.6c0-.4-.2-.6-.6-.6M12.3 10.1c-.3 0-.6.3-.6.6s.3.6.6.6.6-.3.6-.6-.3-.6-.6-.6M7.6 14.3c-.3 0-.6.3-.6.6s.3.6.6.6.6-.3.6-.6c0-.4-.2-.6-.6-.6M39.2 5.8c-.3 0-.6.3-.6.6s.3.6.6.6.6-.3.6-.6-.3-.6-.6-.6M40.9 10.9c-.3 0-.6.3-.6.6s.3.6.6.6.6-.3.6-.6c-.1-.3-.3-.6-.6-.6M44.2 2.5c-.3 0-.6.3-.6.6s.3.6.6.6.6-.3.6-.6c0-.4-.2-.6-.6-.6M44.2 17.6c-.3 0-.6.3-.6.6s.3.6.6.6.6-.3.6-.6-.2-.6-.6-.6M50.9 5.9c-.3 0-.6.3-.6.6s.3.6.6.6.6-.3.6-.6-.2-.6-.6-.6M46.1 10.5c-.3 0-.6.3-.6.6s.3.6.6.6.6-.3.6-.6-.3-.6-.6-.6M22.2 15.4c-.3 0-.6.3-.6.6s.3.6.6.6.6-.3.6-.6-.3-.6-.6-.6M31.2 7.3c-.3 0-.6.3-.6.6s.3.6.6.6.6-.3.6-.6c0-.4-.3-.6-.6-.6M28.6 17.9c-.3 0-.6.3-.6.6s.3.6.6.6.6-.3.6-.6c0-.4-.2-.6-.6-.6M30.1 12.8c-.3 0-.6.3-.6.6s.3.6.6.6.6-.3.6-.6-.3-.6-.6-.6M25.8 5.4c-.3 0-.6.3-.6.6s.3.6.6.6.6-.3.6-.6-.2-.6-.6-.6"/><path class="st1" d="M2.3 27.2c-1.1 0-2-.9-2-2s.8-2 2-2c1.1 0 2 .9 2 2s-.8 2-2 2m0-3.3c-.8 0-1.3.6-1.3 1.3 0 .7.6 1.3 1.3 1.3.8 0 1.3-.6 1.3-1.3s-.5-1.3-1.3-1.3M4.7 25.7v-2.3h.6v2.4c0 .5.2.9.7.9s.7-.4.7-.9v-2.4h.6v2.3c0 .9-.5 1.5-1.3 1.5s-1.3-.6-1.3-1.5M8.6 24h-.9v-.6H10v.6h-.8v3.2h-.6zM10.4 23.4h.6v3.2h1.2v.6h-1.8zM12.3 25.3c0-1.1.8-2 2-2 1.1 0 2.1 1 1.9 2.1h-3.3c.1.7.6 1.2 1.3 1.2.5 0 1-.3 1.2-.8h.7c-.2.8-1 1.4-1.9 1.4-1.1 0-1.9-.9-1.9-1.9m3.2-.4c-.1-.6-.7-1-1.3-1s-1.1.4-1.3 1h2.6zM17.1 24h-.8v-.6h2.3v.6h-.9v3.2h-.6zM22.8 27.2l-.2-.4c-.3.3-.7.4-1.1.4-.8 0-1.4-.5-1.4-1.3 0-.6.4-1.1 1.1-1.3l-.8-1.3h2.1v.4H21l1.6 2.5c.1-.2.2-.6.2-1h.4c0 .5-.1 1-.4 1.3l.4.6-.4.1zm-.4-.7l-1-1.6c-.6.1-.9.5-.9.9 0 .6.4 1 1 1 .3.1.6-.1.9-.3M24.8 25.3c0-1.1.8-2 2-2 1.1 0 2.1 1 1.9 2.1h-3.3c.1.7.6 1.2 1.3 1.2.5 0 1-.3 1.2-.8h.7c-.2.8-1 1.4-1.9 1.4-1.1 0-1.9-.9-1.9-1.9m3.2-.4c-.1-.6-.7-1-1.3-1-.6 0-1.1.4-1.3 1H28zM29.1 23.4h.7l1.7 2.7v-2.7h.7v3.8h-.7l-1.7-2.8v2.8h-.7zM33.3 24h-.8v-.6h2.3v.6H34v3.2h-.7zM34.8 25.3c0-1.1.8-2 2-2s2.1 1 1.9 2.1h-3.3c.1.7.6 1.2 1.3 1.2.5 0 1-.3 1.2-.8h.7c-.2.8-1 1.4-1.9 1.4-1 0-1.9-.9-1.9-1.9m3.3-.4c-.1-.6-.7-1-1.3-1s-1.1.4-1.3 1h2.6zM41 27.2l-.4-.9h-.7v.9h-.6v-3.8h.8c1.2 0 1.6.7 1.6 1.5 0 .5-.2.9-.6 1.2l.6 1.1H41zm-.8-1.5c.6 0 .9-.3.9-.8s-.3-.8-.9-.8h-.3v1.7h.3v-.1zM42.7 24h-.8v-.6h2.2v.6h-.8v3.2h-.6zM46.6 26.6h-1.8l-.2.6h-.7l1.5-3.8h.6l1.4 3.8h-.6l-.2-.6zm-.2-.5l-.7-2-.7 2h1.4zM47.8 23.4h.6v3.8h-.6zM49 23.4h.7l1.7 2.7v-2.7h.6v3.8h-.6l-1.7-2.8v2.8H49zM52.7 23.4h.8l1.3 3 1.3-3h.8v3.8h-.6v-2.8l-1.2 2.8h-.6l-1.2-2.8v2.8h-.6zM57.4 25.3c0-1.1.8-2 2-2 1.1 0 2.1 1 1.9 2.1H58c.1.7.6 1.2 1.3 1.2.5 0 1-.3 1.2-.8h.7c-.2.8-1 1.4-1.9 1.4-1 0-1.9-.9-1.9-1.9m3.3-.4c-.1-.6-.6-1-1.3-1-.6 0-1.1.4-1.3 1h2.6zM61.8 23.4h.6l1.8 2.7v-2.7h.6v3.8h-.6l-1.8-2.8v2.8h-.6zM66 24h-.8v-.6h2.2v.6h-.8v3.2H66zM71.8 4.9c-.4-1-4.1.4-5.7 1.1l-7.8-3.9s-.9-.5-2.2 0c-.1 0-.2.1-.2.3 0 .1 0 .2.1.3l5.7 5.1v.1c-1.1.5-2.2 1-3.1 1.5l-3.1-1.3h-.3l-.7.3c-.1 0-.2.1-.2.2s0 .2.1.3c.7.6 2 1.9 2.4 2.3v3.4c0 .1.1.2.2.3.1.1.2.1.3 0l.7-.3c.1 0 .1-.1.2-.2l1.2-3.2c1-.3 2.1-.8 3.2-1.3v.1l-.2 7.7c0 .1.1.2.1.3 0 0 .1 0 .1.1h.2c1.3-.5 1.5-1.5 1.5-1.6l2.6-8.3c1.8-.6 5.3-2.3 4.9-3.3M.9.8c-.4 0-.6.2-.6.6s.2.6.6.6c.3 0 .6-.3.6-.6S1.2.8.9.8M.9 5.8c-.3 0-.6.3-.6.6 0 .4.2.6.6.6.3 0 .6-.3.6-.6s-.3-.6-.6-.6M.9 12.6c-.3 0-.6.3-.6.6s.3.6.6.6.6-.3.6-.6-.3-.6-.6-.6M.9 16c-.3 0-.6.3-.6.6s.3.6.6.6.6-.3.6-.6c0-.4-.3-.6-.6-.6M2.6 2.5c-.4 0-.6.2-.6.6 0 .3.3.6.6.6s.6-.3.6-.6c0-.4-.3-.6-.6-.6M2.6 7.5c-.4 0-.6.3-.6.6s.3.6.6.6.6-.3.6-.6-.3-.6-.6-.6M2.6 10.9c-.3 0-.6.3-.6.6s.3.6.6.6.6-.3.6-.6-.3-.6-.6-.6M2.6 14.3c-.3 0-.6.3-.6.6s.3.6.6.6.6-.3.6-.6c0-.4-.3-.6-.6-.6M4.3 4.1c-.3 0-.6.3-.6.6s.3.6.6.6.6-.3.6-.6-.3-.6-.6-.6M4.3 7.5c-.3 0-.6.3-.6.6s.3.6.6.6.6-.3.6-.6-.3-.6-.6-.6M4.3 12.6c-.3 0-.6.3-.6.6s.3.6.6.6.6-.3.6-.6-.3-.6-.6-.6M4.3 17.6c-.3 0-.6.3-.6.6s.3.6.6.6.6-.3.6-.6-.3-.6-.6-.6M6 .8c-.4 0-.6.2-.6.6s.2.6.6.6c.3 0 .6-.3.6-.6S6.3.8 6 .8M6 2.5c-.3 0-.6.3-.6.6s.3.6.6.6.6-.3.6-.6c0-.4-.3-.6-.6-.6M6 5.8c-.3 0-.6.3-.6.6 0 .4.2.6.6.6.3 0 .6-.3.6-.6s-.3-.6-.6-.6M6 9.2c-.3 0-.6.3-.6.6s.3.6.6.6.6-.3.6-.6-.3-.6-.6-.6M6 10.9c-.3 0-.6.3-.6.6s.3.6.6.6.6-.3.6-.6-.3-.6-.6-.6M6 14.3c-.3 0-.6.3-.6.6s.3.6.6.6.6-.3.6-.6c0-.4-.3-.6-.6-.6"/><path class="st2" d="M7.6 4.1c-.3 0-.6.3-.6.6s.3.6.6.6.6-.3.6-.6-.2-.6-.6-.6"/><path class="st1" d="M7.6 7.5c-.3 0-.6.3-.6.6s.3.6.6.6.6-.3.6-.6-.2-.6-.6-.6"/><path class="st2" d="M7.6 9.2c-.3 0-.6.3-.6.6s.3.6.6.6.6-.3.6-.6-.2-.6-.6-.6"/><path class="st1" d="M7.6 12.6c-.3 0-.6.3-.6.6s.3.6.6.6.6-.3.6-.6-.2-.6-.6-.6M7.6 17.6c-.3 0-.6.3-.6.6s.3.6.6.6.6-.3.6-.6-.2-.6-.6-.6M14.3 5.9c-.3 0-.6.3-.6.6s.3.6.6.6.6-.3.6-.6-.2-.6-.6-.6M12.5 2.8c-.3 0-.6.3-.6.6s.3.6.6.6.6-.3.6-.6c0-.4-.3-.6-.6-.6M9.3 14.3c-.3 0-.6.3-.6.6s.3.6.6.6.6-.3.6-.6c0-.4-.2-.6-.6-.6M9.3 1c-.3 0-.6.2-.6.6 0 .3.3.6.6.6s.6-.3.6-.6c0-.4-.2-.6-.6-.6M12.2 4.9c-.3 0-.6.3-.6.6s.3.6.6.6.6-.3.6-.6-.2-.6-.6-.6M11.2 11.4c-.3 0-.6.3-.6.6s.3.6.6.6.6-.3.6-.6-.3-.6-.6-.6M14.3 9.4c-.3 0-.6.3-.6.6s.3.6.6.6.6-.3.6-.6-.2-.6-.6-.6M7.6 4.1c-.3 0-.6.3-.6.6s.3.6.6.6.6-.3.6-.6-.2-.6-.6-.6M9.3 8.5c-.3 0-.6.3-.6.6s.3.6.6.6.6-.3.6-.6-.3-.6-.6-.6M11.1 7.5c-.3 0-.6.3-.6.6s.3.6.6.6.6-.3.6-.6-.3-.6-.6-.6M10.8 5.8c-.3 0-.6.3-.6.6s.3.6.6.6.6-.3.6-.6-.3-.6-.6-.6M37.5 2.5c-.3 0-.6.3-.6.6s.3.6.6.6.6-.3.6-.6c0-.4-.3-.6-.6-.6M37.5 4.1c-.3 0-.6.3-.6.6s.3.6.6.6.6-.3.6-.6-.3-.6-.6-.6M37.5 7.5c-.3 0-.6.3-.6.6s.3.6.6.6.6-.3.6-.6-.3-.6-.6-.6M37.5 9.2c-.3 0-.6.3-.6.6s.3.6.6.6.6-.3.6-.6-.3-.6-.6-.6M37.5 12.6c-.3 0-.6.3-.6.6s.3.6.6.6.6-.3.6-.6-.3-.6-.6-.6"/><path d="M37.5 16c-.3 0-.6.3-.6.6s.3.6.6.6.6-.3.6-.6c0-.4-.3-.6-.6-.6" fill="#d24f8d"/><path class="st1" d="M39.2.8c-.3 0-.6.3-.6.6s.2.6.6.6c.3 0 .6-.3.6-.6s-.3-.6-.6-.6M39.2 12.6c-.3 0-.6.3-.6.6s.3.6.6.6.6-.3.6-.6-.3-.6-.6-.6M39.2 17.6c-.3 0-.6.3-.6.6s.3.6.6.6.6-.3.6-.6-.3-.6-.6-.6M40.9 4.1c-.3 0-.6.3-.6.6s.3.6.6.6.6-.3.6-.6c-.1-.3-.3-.6-.6-.6M40.9 5.8c-.3 0-.6.3-.6.6s.3.6.6.6.6-.3.6-.6c-.1-.3-.3-.6-.6-.6M40.9 12.6c-.3 0-.6.3-.6.6s.3.6.6.6.6-.3.6-.6c-.1-.3-.3-.6-.6-.6M40.9 14.3c-.3 0-.6.3-.6.6s.3.6.6.6.6-.3.6-.6c-.1-.4-.3-.6-.6-.6M42.6.8c-.4 0-.6.2-.6.6s.2.6.6.6c.3 0 .6-.3.6-.6s-.3-.6-.6-.6M42.6 2.5c-.3 0-.6.3-.6.6s.3.6.6.6.6-.3.6-.6c0-.4-.3-.6-.6-.6M42.6 5.8c-.3 0-.6.3-.6.6 0 .4.2.6.6.6.3 0 .6-.3.6-.6s-.3-.6-.6-.6M42.6 7.5c-.3 0-.6.3-.6.6s.3.6.6.6.6-.3.6-.6-.3-.6-.6-.6M42.6 10.9c-.3 0-.6.3-.6.6s.3.6.6.6.6-.3.6-.6-.3-.6-.6-.6M42.6 14.3c-.3 0-.6.3-.6.6s.3.6.6.6.6-.3.6-.6c0-.4-.3-.6-.6-.6M42.6 16c-.3 0-.6.3-.6.6s.3.6.6.6.6-.3.6-.6c0-.4-.3-.6-.6-.6"/><path class="st2" d="M44.2 4.1c-.3 0-.6.3-.6.6s.3.6.6.6.6-.3.6-.6-.2-.6-.6-.6"/><path class="st1" d="M44.2 5.8c-.3 0-.6.3-.6.6s.3.6.6.6.6-.3.6-.6-.2-.6-.6-.6"/><path class="st2" d="M44.2 9.2c-.3 0-.6.3-.6.6s.3.6.6.6.6-.3.6-.6-.2-.6-.6-.6"/><path class="st1" d="M44.2 12.6c-.3 0-.6.3-.6.6s.3.6.6.6.6-.3.6-.6-.2-.6-.6-.6"/><path class="st2" d="M44.2 14.3c-.3 0-.6.3-.6.6s.3.6.6.6.6-.3.6-.6c0-.4-.2-.6-.6-.6"/><path class="st1" d="M51 7.6c-.3 0-.6.3-.6.6s.3.6.6.6.6-.3.6-.6c0-.4-.2-.6-.6-.6M49.1 2.8c-.3 0-.6.3-.6.6s.3.6.6.6.6-.3.6-.6c0-.4-.3-.6-.6-.6M47.6 13.7c-.3 0-.6.3-.6.6s.3.6.6.6.6-.3.6-.6c0-.4-.2-.6-.6-.6M45.9 1c-.3 0-.6.3-.6.6s.3.6.6.6.6-.3.6-.6c0-.4-.2-.6-.6-.6M49.4 8.3c-.3 0-.6.3-.6.6s.3.6.6.6.6-.3.6-.6-.3-.6-.6-.6M48.8 4.9c-.3 0-.6.3-.6.6s.3.6.6.6.6-.3.6-.6-.2-.6-.6-.6M46.2 2.9c-.3 0-.6.3-.6.6s.3.6.6.6.6-.3.6-.6-.3-.6-.6-.6M46.2 12.3c-.3 0-.6.3-.6.6s.3.6.6.6.6-.3.6-.6-.3-.6-.6-.6M50.2 11.1c-.3 0-.6.3-.6.6s.3.6.6.6.6-.3.6-.6-.2-.6-.6-.6M44.2 4.1c-.3 0-.6.3-.6.6s.3.6.6.6.6-.3.6-.6-.2-.6-.6-.6M44.2 9.2c-.3 0-.6.3-.6.6s.3.6.6.6.6-.3.6-.6-.2-.6-.6-.6M45.9 6.8c-.3 0-.6.3-.6.6s.3.6.6.6.6-.3.6-.6c0-.4-.2-.6-.6-.6M26 9.1c-.3 0-.6.3-.6.6s.3.6.6.6.6-.3.6-.6-.3-.6-.6-.6M24.1 12.4c-.3 0-.6.3-.6.6s.3.6.6.6.6-.3.6-.6c-.1-.3-.3-.6-.6-.6M21.3 17c-.3 0-.6.3-.6.6s.3.6.6.6.6-.3.6-.6-.3-.6-.6-.6M22.7 11c-.3 0-.6.3-.6.6s.3.6.6.6.6-.3.6-.6-.3-.6-.6-.6M18.9 11c-.3 0-.6.3-.6.6s.3.6.6.6.6-.3.6-.6-.3-.6-.6-.6M19.6 12.8c-.3 0-.6.3-.6.6s.3.6.6.6.6-.3.6-.6c0-.4-.3-.6-.6-.6M18.6 14.5c-.3 0-.6.3-.6.6s.3.6.6.6.6-.3.6-.6c0-.4-.3-.6-.6-.6M33.1 7.4c-.3 0-.6.3-.6.6s.3.6.6.6.6-.3.6-.6-.3-.6-.6-.6M34.9 7.4c-.3 0-.6.3-.6.6s.3.6.6.6.6-.3.6-.6c0-.4-.3-.6-.6-.6M32.4 5.6c-.3 0-.6.3-.6.6s.3.6.6.6.6-.3.6-.6c-.1-.4-.3-.6-.6-.6M30.2 5.6c-.3 0-.6.3-.6.6s.3.6.6.6.6-.3.6-.6-.2-.6-.6-.6M31.2 4c-.3 0-.6.3-.6.6s.3.6.6.6.6-.3.6-.6-.2-.6-.6-.6M32.1 2.4c-.3 0-.6.3-.6.6s.3.6.6.6.6-.3.6-.6-.3-.6-.6-.6M27.7 5.8c-.3 0-.6.3-.6.6s.3.6.6.6.6-.3.6-.6-.3-.6-.6-.6M30.5 1.3c-.3 0-.6.3-.6.6s.3.6.6.6.6-.3.6-.6c0-.4-.3-.6-.6-.6M27 10.9c-.3 0-.6.3-.6.6s.3.6.6.6.6-.3.6-.6c-.1-.3-.3-.6-.6-.6M26 12.9c-.3 0-.6.3-.6.6s.3.6.6.6.6-.3.6-.6-.3-.6-.6-.6M24.9 14.6c-.3 0-.6.3-.6.6s.3.6.6.6.6-.3.6-.6c0-.4-.3-.6-.6-.6M27.7 16.3c-.3 0-.6.3-.6.6s.3.6.6.6.6-.3.6-.6-.3-.6-.6-.6M24.9 18.2c-.3 0-.6.3-.6.6s.3.6.6.6.6-.3.6-.6-.3-.6-.6-.6M29.2 11c-.3 0-.6.3-.6.6s.3.6.6.6.6-.3.6-.6-.2-.6-.6-.6M34.9 11.1c-.3 0-.6.3-.6.6s.3.6.6.6.6-.3.6-.6-.3-.6-.6-.6M34.3 12.8c-.3 0-.6.3-.6.6s.3.6.6.6.6-.3.6-.6-.3-.6-.6-.6M31.1 14.4c-.3 0-.6.3-.6.6s.3.6.6.6.6-.3.6-.6-.3-.6-.6-.6M32.3 12.8c-.3 0-.6.3-.6.6s.3.6.6.6.6-.3.6-.6-.3-.6-.6-.6M28.6 14c-.3 0-.6.3-.6.6s.3.6.6.6.6-.3.6-.6-.2-.6-.6-.6M24 6c-.3 0-.6.3-.6.6s.3.6.6.6.6-.3.6-.6c0-.4-.3-.6-.6-.6M22.3 2.8c-.3 0-.6.3-.6.6s.3.6.6.6.6-.3.6-.6c0-.4-.2-.6-.6-.6M23.1.5c-.3 0-.6.3-.6.6s.3.6.6.6.6-.3.6-.6c0-.4-.2-.6-.6-.6M25 3.7c-.3 0-.6.3-.6.6s.3.6.6.6.6-.3.6-.6c0-.4-.3-.6-.6-.6M26.9 3.7c-.3 0-.6.3-.6.6s.3.6.6.6.6-.3.6-.6c0-.4-.3-.6-.6-.6M26 1.9c-.3 0-.6.3-.6.6s.2.5.6.5c.3 0 .6-.3.6-.6s-.3-.5-.6-.5M25 .1c-.3 0-.6.3-.6.6s.3.6.6.6.6-.3.6-.6-.3-.6-.6-.6M19.9 2.4c-.3 0-.6.3-.6.6s.3.6.6.6.6-.3.6-.6-.3-.6-.6-.6M17.6 5.5c-.3 0-.6.3-.6.6s.3.6.6.6.6-.3.6-.6-.3-.6-.6-.6M20.8 4c-.3 0-.6.3-.6.6s.3.6.6.6.6-.3.6-.6c0-.4-.3-.6-.6-.6M21.7 5.6c-.3 0-.6.3-.6.6s.3.6.6.6.6-.3.6-.6-.3-.6-.6-.6"/><path class="st2" d="M17 7.3c-.3 0-.6.3-.6.6s.3.6.6.6.6-.3.6-.6-.2-.6-.6-.6"/><path class="st4" d="M2.6 4.1c-.4 0-.6.3-.6.6s.3.6.6.6.6-.3.6-.6-.3-.6-.6-.6M2.6 12.6c-.3 0-.6.3-.6.6s.3.6.6.6.6-.3.6-.6-.3-.6-.6-.6M2.6 16c-.4 0-.6.2-.6.6 0 .3.3.6.6.6s.6-.3.6-.6c0-.4-.3-.6-.6-.6M12.5 12.6c-.3 0-.6.3-.6.6s.3.6.6.6.6-.3.6-.6-.3-.6-.6-.6M7.6 9.2c-.3 0-.6.3-.6.6s.3.6.6.6.6-.3.6-.6-.2-.6-.6-.6M9.3 4.8c-.3 0-.6.3-.6.6 0 .4.3.6.6.6s.6-.3.6-.6-.3-.6-.6-.6M39.2 10.9c-.3 0-.6.3-.6.6s.3.6.6.6.6-.3.6-.6-.3-.6-.6-.6M39.2 16c-.3 0-.6.3-.6.6s.3.6.6.6.6-.3.6-.6c0-.4-.3-.6-.6-.6M40.9 2.5c-.3 0-.6.3-.6.6s.3.6.6.6.6-.3.6-.6c-.1-.4-.3-.6-.6-.6M40.9 7.5c-.3 0-.6.3-.6.6s.3.6.6.6.6-.3.6-.6c-.1-.3-.3-.6-.6-.6M48.9 10.1c-.3 0-.6.3-.6.6s.3.6.6.6.6-.3.6-.6-.3-.6-.6-.6M47.4 5.8c-.3 0-.6.3-.6.6s.3.6.6.6.6-.3.6-.6-.3-.6-.6-.6M23.1 13.9c-.3 0-.6.3-.6.6s.3.6.6.6.6-.3.6-.6-.3-.6-.6-.6M26.9 7.4c-.3 0-.6.3-.6.6s.3.6.6.6.6-.3.6-.6-.3-.6-.6-.6M29.7 2.8c-.3 0-.6.3-.6.6s.3.6.6.6.6-.3.6-.6-.3-.6-.6-.6M31.2 11.1c-.3 0-.6.3-.6.6s.3.6.6.6.6-.3.6-.6-.3-.6-.6-.6M23.2 4.4c-.3 0-.6.3-.6.6s.3.6.6.6.6-.3.6-.6-.3-.6-.6-.6M18.9 7.3c-.3 0-.6.3-.6.6s.3.6.6.6.6-.3.6-.6c0-.4-.3-.6-.6-.6"/><path class="st1" d="M20.7 7.3c-.3 0-.6.3-.6.6s.3.6.6.6.6-.3.6-.6c0-.4-.2-.6-.6-.6"/><path class="st5" d="M2.6 9.2c-.4 0-.6.3-.6.6s.3.6.6.6.6-.3.6-.6-.3-.6-.6-.6M4.3.8c-.4 0-.6.2-.6.6s.2.6.6.6c.3 0 .6-.3.6-.6S4.6.8 4.3.8M6 16c-.3 0-.6.3-.6.6s.3.6.6.6.6-.3.6-.6c0-.4-.3-.6-.6-.6M7.6 2.5c-.3 0-.6.3-.6.6s.3.6.6.6.6-.3.6-.6c0-.4-.2-.6-.6-.6M12.8 6.5c-.3 0-.6.3-.6.6s.3.6.6.6.6-.3.6-.6-.2-.6-.6-.6M9.5 10.5c-.3 0-.6.3-.6.6s.3.6.6.6.6-.3.6-.6-.3-.6-.6-.6M39.2 4.1c-.3 0-.6.3-.6.6s.3.6.6.6.6-.3.6-.6-.3-.6-.6-.6M39.2 14.3c-.3 0-.6.3-.6.6s.3.6.6.6.6-.3.6-.6c0-.4-.3-.6-.6-.6M42.6 17.6c-.3 0-.6.3-.6.6s.3.6.6.6.6-.3.6-.6-.3-.6-.6-.6M44.2 10.9c-.3 0-.6.3-.6.6s.3.6.6.6.6-.3.6-.6-.2-.6-.6-.6M50.2 4.2c-.3 0-.6.3-.6.6s.3.6.6.6.6-.3.6-.6-.2-.6-.6-.6M49.1 12.6c-.3 0-.6.3-.6.6s.3.6.6.6.6-.3.6-.6-.3-.6-.6-.6M20.7 11c-.3 0-.6.3-.6.6s.3.6.6.6.6-.3.6-.6-.2-.6-.6-.6M29.2 7.2c-.3 0-.6.3-.6.6s.3.6.6.6.6-.3.6-.6-.3-.6-.6-.6M27.8 12.4c-.3 0-.6.3-.6.6s.3.6.6.6.6-.3.6-.6-.2-.6-.6-.6M23.9 16.2c-.3 0-.6.3-.6.6s.3.6.6.6.6-.3.6-.6-.3-.6-.6-.6M27.9 2.1c-.3 0-.6.3-.6.6s.3.6.6.6.6-.3.6-.6-.3-.6-.6-.6M22.6 7.4c-.3 0-.6.2-.6.6 0 .3.3.6.6.6s.6-.3.6-.6c0-.4-.2-.6-.6-.6"/><path class="st1" d="M23.9 9.1c-.3 0-.6.3-.6.6s.3.6.6.6.6-.3.6-.6-.2-.6-.6-.6M22.2 9.1c-.3 0-.6.3-.6.6s.3.6.6.6.6-.3.6-.6-.3-.6-.6-.6"/><path class="st6" d="M2.6 5.8c-.4 0-.6.3-.6.6 0 .4.2.6.6.6.3 0 .6-.3.6-.6s-.3-.6-.6-.6M4.3 14.3c-.3 0-.6.3-.6.6s.3.6.6.6.6-.3.6-.6c0-.4-.3-.6-.6-.6M6 7.5c-.3 0-.6.3-.6.6s.3.6.6.6.6-.3.6-.6-.3-.6-.6-.6M7.6.8c-.3 0-.5.2-.5.6s.2.6.5.6c.4 0 .6-.3.6-.6S8 .8 7.6.8M7.6 16c-.3 0-.6.3-.6.6s.3.6.6.6.6-.3.6-.6c0-.4-.2-.6-.6-.6M12.8 8.3c-.3 0-.6.3-.6.6s.3.6.6.6.6-.3.6-.6-.2-.6-.6-.6M37.5 10.9c-.3 0-.6.3-.6.6s.3.6.6.6.6-.3.6-.6-.3-.6-.6-.6M40.9 17.6c-.3 0-.6.3-.6.6s.3.6.6.6.6-.3.6-.6c-.1-.3-.3-.6-.6-.6M42.6 4.1c-.3 0-.6.3-.6.6s.3.6.6.6.6-.3.6-.6-.3-.6-.6-.6M42.6 12.6c-.3 0-.6.3-.6.6s.3.6.6.6.6-.3.6-.6-.3-.6-.6-.6M47.6 3.7c-.3 0-.6.3-.6.6s.3.6.6.6.6-.3.6-.6c0-.4-.2-.6-.6-.6M47.8 11.4c-.3 0-.6.3-.6.6s.3.6.6.6.6-.3.6-.6-.3-.6-.6-.6M19.8 15.8c-.3 0-.6.3-.6.6s.3.6.6.6.6-.3.6-.6c-.1-.3-.3-.6-.6-.6M28.8 4.3c-.3 0-.6.3-.6.6s.3.6.6.6.6-.3.6-.6c-.1-.3-.3-.6-.6-.6M33 11.1c-.3 0-.6.3-.6.6s.3.6.6.6.6-.3.6-.6c0-.4-.2-.6-.6-.6M30.4 17.1c-.3 0-.6.3-.6.6s.3.6.6.6.6-.3.6-.6-.3-.6-.6-.6M18.6 3.9c-.3 0-.6.3-.6.6s.3.6.6.6.6-.3.6-.6c0-.4-.3-.6-.6-.6M20.4 9.1c-.3 0-.6.3-.6.6s.3.6.6.6.6-.3.6-.6-.3-.6-.6-.6"/><path class="st1" d="M16.9 9.1c-.3 0-.6.3-.6.6s.3.6.6.6.6-.3.6-.6-.3-.6-.6-.6"/><path class="st7" d="M.9 14.3c-.3 0-.6.3-.6.6s.3.6.6.6.6-.3.6-.6c0-.4-.3-.6-.6-.6M2.6.8c-.4 0-.6.2-.6.6s.2.6.6.6c.3 0 .6-.3.6-.6S2.9.8 2.6.8M4.3 9.2c-.3 0-.6.3-.6.6s.3.6.6.6.6-.3.6-.6-.3-.6-.6-.6M6 17.6c-.3 0-.6.3-.6.6s.3.6.6.6.6-.3.6-.6-.3-.6-.6-.6M11 13.7c-.3 0-.6.3-.6.6s.3.6.6.6.6-.3.6-.6c0-.4-.2-.6-.6-.6M9.3 6.8c-.3 0-.6.2-.6.6 0 .3.3.6.6.6s.6-.3.6-.6c0-.4-.2-.6-.6-.6M37.5.8c-.3 0-.6.3-.6.6s.2.6.6.6c.3 0 .6-.3.6-.6s-.3-.6-.6-.6M39.2 9.2c-.3 0-.6.3-.6.6s.3.6.6.6.6-.3.6-.6-.3-.6-.6-.6M45.9 14.3c-.3 0-.6.3-.6.6s.3.6.6.6.6-.3.6-.6c0-.4-.2-.6-.6-.6M50.9 9.4c-.3 0-.6.3-.6.6s.3.6.6.6.6-.3.6-.6-.2-.6-.6-.6M45.9 4.8c-.3 0-.6.3-.6.6s.3.6.6.6.6-.3.6-.6-.3-.6-.6-.6M17 11c-.3 0-.6.3-.6.6s.3.6.6.6.6-.3.6-.6-.2-.6-.6-.6M33.4 3.8c-.3 0-.6.3-.6.6 0 .4.2.6.6.6.3 0 .6-.2.6-.6 0-.3-.3-.6-.6-.6M26.8 14.6c-.3 0-.6.3-.6.6s.3.6.6.6.6-.3.6-.6c0-.4-.3-.6-.6-.6M23.1 17.8c-.3 0-.6.3-.6.6s.3.6.6.6.6-.3.6-.6c-.1-.4-.3-.6-.6-.6M32 16c-.3 0-.6.3-.6.6s.3.6.6.6.6-.3.6-.6-.3-.6-.6-.6M21.4 1.3c-.3 0-.6.3-.6.6s.3.6.6.6.6-.3.6-.6c0-.4-.3-.6-.6-.6M28 9.1c-.3 0-.6.3-.6.6s.3.6.6.6.6-.3.6-.6-.3-.6-.6-.6"/><path class="st1" d="M29.7 9.1c-.3 0-.6.3-.6.6s.3.6.6.6.6-.3.6-.6-.2-.6-.6-.6"/><path class="st8" d="M.9 4.1c-.3 0-.6.3-.6.6s.3.6.6.6.6-.3.6-.6-.3-.6-.6-.6M.9 17.6c-.3 0-.6.3-.6.6s.3.6.6.6.6-.3.6-.6-.3-.6-.6-.6M4.3 2.5c-.3 0-.6.3-.6.6s.3.6.6.6.6-.3.6-.6c0-.4-.3-.6-.6-.6M4.3 10.9c-.3 0-.6.3-.6.6s.3.6.6.6.6-.3.6-.6-.3-.6-.6-.6M14.4 7.6c-.3 0-.6.3-.6.6s.3.6.6.6.6-.3.6-.6c0-.4-.2-.6-.6-.6M9.6 12.3c-.3 0-.6.3-.6.6s.3.6.6.6.6-.3.6-.6-.3-.6-.6-.6M39.2 7.5c-.3 0-.6.3-.6.6s.3.6.6.6.6-.3.6-.6-.3-.6-.6-.6M40.9 16c-.3 0-.6.3-.6.6s.3.6.6.6.6-.3.6-.6c-.1-.4-.3-.6-.6-.6M42.6 9.2c-.3 0-.6.3-.6.6s.3.6.6.6.6-.3.6-.6-.3-.6-.6-.6M44.2.8c-.3 0-.6.3-.6.6s.3.6.6.6.6-.3.6-.6-.2-.6-.6-.6M49.4 6.5c-.3 0-.6.3-.6.6s.3.6.6.6.6-.3.6-.6-.3-.6-.6-.6M45.9 8.5c-.3 0-.6.3-.6.6s.3.6.6.6.6-.3.6-.6-.3-.6-.6-.6M24.9 10.9c-.3 0-.6.3-.6.6s.3.6.6.6.6-.3.6-.6c0-.4-.3-.6-.6-.6M17.6 12.8c-.3 0-.6.3-.6.6s.3.6.6.6.6-.3.6-.6-.3-.6-.6-.6M34.3 5.5c-.3 0-.6.3-.6.6s.3.6.6.6.6-.3.6-.6-.3-.6-.6-.6M25.8 16.5c-.3 0-.6.3-.6.6s.3.6.6.6.6-.3.6-.6-.3-.6-.6-.6M24.1 2.1c-.3 0-.6.3-.6.6s.3.6.6.6.6-.3.6-.6c0-.4-.3-.6-.6-.6M31.5 9.1c-.3 0-.6.3-.6.6s.3.6.6.6.6-.3.6-.6-.2-.6-.6-.6"/><path class="st9" d="M13.6 4.2c-.3 0-.6.3-.6.6s.3.6.6.6.6-.3.6-.6-.2-.6-.6-.6M47.7 7.5c-.3 0-.6.3-.6.6s.3.6.6.6.6-.3.6-.6-.3-.6-.6-.6M.9 10.9c-.3 0-.6.3-.6.6s.3.6.6.6.6-.3.6-.6-.3-.6-.6-.6M4.3 16c-.3 0-.6.3-.6.6s.3.6.6.6.6-.3.6-.6c0-.4-.3-.6-.6-.6M6 4.1c-.3 0-.6.3-.6.6s.3.6.6.6.6-.3.6-.6-.3-.6-.6-.6M7.6 10.9c-.3 0-.6.3-.6.6s.3.6.6.6.6-.3.6-.6-.2-.6-.6-.6M9.6 2.9c-.3 0-.6.3-.6.6s.3.6.6.6.6-.3.6-.6-.3-.6-.6-.6M13.6 11.1c-.3 0-.6.3-.6.6s.3.6.6.6.6-.3.6-.6-.2-.6-.6-.6M37.5 17.6c-.3 0-.6.3-.6.6s.3.6.6.6.6-.3.6-.6-.3-.6-.6-.6M39.2 2.5c-.3 0-.6.3-.6.6s.3.6.6.6.6-.3.6-.6c0-.4-.3-.6-.6-.6M40.9 9.2c-.3 0-.6.3-.6.6s.3.6.6.6.6-.3.6-.6c-.1-.3-.3-.6-.6-.6M47.6 1.7c-.3 0-.6.3-.6.6s.3.6.6.6.6-.3.6-.6c0-.4-.2-.6-.6-.6M44.2 14.3c-.3 0-.6.3-.6.6s.3.6.6.6.6-.3.6-.6c0-.4-.2-.6-.6-.6M21.7 12.7c-.3 0-.6.3-.6.6s.3.6.6.6.6-.3.6-.6-.3-.6-.6-.6M26.8 18.2c-.3 0-.6.3-.6.6s.3.6.6.6.6-.3.6-.6-.3-.6-.6-.6M33.3 14.5c-.3 0-.6.3-.6.6s.3.6.6.6.6-.3.6-.6-.3-.6-.6-.6M26.9.1c-.3 0-.6.3-.6.6s.3.6.6.6.6-.3.6-.6-.3-.6-.6-.6M19.6 5.5c-.3 0-.6.3-.6.6s.3.6.6.6.6-.3.6-.6-.3-.6-.6-.6M33.3 9.1c-.3 0-.6.3-.6.6s.3.6.6.6.6-.3.6-.6-.3-.6-.6-.6"/><path class="st10" d="M.9 7.5c-.3 0-.6.3-.6.6s.3.6.6.6.6-.3.6-.6-.3-.6-.6-.6M2.6 17.6c-.3 0-.6.3-.6.6s.3.6.6.6.6-.3.6-.6-.3-.6-.6-.6M4.3 5.8c-.3 0-.6.3-.6.6 0 .4.2.6.6.6.3 0 .6-.3.6-.6s-.3-.6-.6-.6M6 12.6c-.3 0-.6.3-.6.6s.3.6.6.6.6-.3.6-.6-.3-.6-.6-.6M11 3.7c-.3 0-.6.3-.6.6s.3.6.6.6.6-.3.6-.6c0-.4-.2-.6-.6-.6M10.9 9.3c-.3 0-.6.3-.6.6s.3.6.6.6.6-.3.6-.6-.3-.6-.6-.6M37.5 5.8c-.3 0-.6.3-.6.6s.3.6.6.6.6-.3.6-.6-.3-.6-.6-.6M37.5 14.3c-.3 0-.6.3-.6.6s.3.6.6.6.6-.3.6-.6c0-.4-.3-.6-.6-.6M40.9.8c-.3 0-.6.3-.6.6s.2.6.6.6c.3 0 .6-.3.6-.6s-.3-.6-.6-.6M44.2 7.5c-.3 0-.6.3-.6.6s.3.6.6.6.6-.3.6-.6-.2-.6-.6-.6M44.2 16c-.3 0-.6.3-.6.6s.3.6.6.6.6-.3.6-.6c0-.4-.2-.6-.6-.6M47.5 9.3c-.3 0-.6.3-.6.6s.3.6.6.6.6-.3.6-.6-.3-.6-.6-.6M20.7 14.3c-.3 0-.6.3-.6.6s.3.6.6.6.6-.3.6-.6c0-.4-.2-.6-.6-.6M29.5 15.5c-.3 0-.6.3-.6.6s.3.6.6.6.6-.3.6-.6-.2-.6-.6-.6M24.9 7.5c-.3 0-.6.3-.6.6s.3.6.6.6.6-.3.6-.6c0-.4-.3-.6-.6-.6M28.7.5c-.3 0-.6.3-.6.6s.3.6.6.6.6-.3.6-.6c0-.4-.3-.6-.6-.6M18.6 9.1c-.3 0-.6.3-.6.6s.3.6.6.6.6-.3.6-.6-.2-.6-.6-.6M35.1 9.1c-.3 0-.6.3-.6.6s.3.6.6.6.6-.3.6-.6-.3-.6-.6-.6"/></svg>