<?xml version="1.0" encoding="UTF-8" standalone="no"?>
<svg
   xmlns:dc="http://purl.org/dc/elements/1.1/"
   xmlns:cc="http://creativecommons.org/ns#"
   xmlns:rdf="http://www.w3.org/1999/02/22-rdf-syntax-ns#"
   xmlns:svg="http://www.w3.org/2000/svg"
   xmlns="http://www.w3.org/2000/svg"
   xmlns:sodipodi="http://sodipodi.sourceforge.net/DTD/sodipodi-0.dtd"
   xmlns:inkscape="http://www.inkscape.org/namespaces/inkscape"
   width="52mm"
   height="12mm"
   viewBox="0 0 52 12"
   version="1.1"
   id="svg1475"
   inkscape:version="1.0.1 (3bc2e813f5, 2020-09-07)"
   sodipodi:docname="logo.svg">
  <defs
     id="defs1469">
    <rect
       x="-67.04335"
       y="20.797899"
       width="657.41748"
       height="67.388718"
       id="rect971" />
    <rect
       x="-67.04335"
       y="20.797899"
       width="657.41748"
       height="67.388718"
       id="rect998" />
    <rect
       x="-67.04335"
       y="20.797899"
       width="793.67065"
       height="70.350744"
       id="rect867" />
  </defs>
  <sodipodi:namedview
     id="base"
     pagecolor="#ffffff"
     bordercolor="#666666"
     borderopacity="1.0"
     inkscape:pageopacity="0.0"
     inkscape:pageshadow="2"
     inkscape:zoom="5.6"
     inkscape:cx="80.39275"
     inkscape:cy="31.2634"
     inkscape:document-units="mm"
     inkscape:current-layer="text865"
     inkscape:document-rotation="0"
     showgrid="false"
     units="mm"
     height="73mm"
     inkscape:window-width="1920"
     inkscape:window-height="1001"
     inkscape:window-x="-7"
     inkscape:window-y="-7"
     inkscape:window-maximized="1"
     showguides="true"
     inkscape:guide-bbox="true" />
  <metadata
     id="metadata1472">
    <rdf:RDF>
      <cc:Work
         rdf:about="">
        <dc:format>image/svg+xml</dc:format>
        <dc:type
           rdf:resource="http://purl.org/dc/dcmitype/StillImage" />
        <dc:title />
      </cc:Work>
    </rdf:RDF>
  </metadata>
  <g
     inkscape:label="Layer 1"
     inkscape:groupmode="layer"
     id="layer1">
    <g
       aria-label="BUSINESS INTELLIGENCE"
       transform="matrix(0.06100515,0,0,0.06100515,13.136929,8.0007673)"
       id="text865"
       style="font-style:normal;font-weight:normal;font-size:38.6148px;line-height:1.25;font-family:sans-serif;text-align:center;letter-spacing:7.81935px;white-space:pre;shape-inside:url(#rect867);fill:#ff418a;fill-opacity:1;stroke:none;stroke-width:40.8094">
      <path
         d="m 32.287928,28.462442 h 7.787066 q 5.486771,0 7.937906,1.640375 2.451135,1.640375 2.451135,5.185093 0,2.451134 -1.376407,4.053799 -1.357551,1.58381 -3.97838,2.055183 v 0.188548 q 6.278676,1.074729 6.278676,6.599209 0,3.695557 -2.507699,5.769594 -2.488845,2.074037 -6.976307,2.074037 h -9.61599 z m 3.20533,11.803157 h 5.279367 q 3.393879,0 4.883415,-1.055874 1.489535,-1.074728 1.489535,-3.601282 0,-2.319151 -1.659229,-3.337315 -1.65923,-1.037018 -5.279367,-1.037018 h -4.713721 z m 0,2.715103 v 10.31362 h 5.750739 q 3.337314,0 5.015399,-1.282132 1.696939,-1.300987 1.696939,-4.053799 0,-2.564264 -1.734649,-3.770977 -1.715794,-1.206712 -5.241657,-1.206712 z"
         style="font-style:normal;font-variant:normal;font-weight:normal;font-stretch:normal;font-family:'Open Sans';-inkscape-font-specification:'Open Sans';fill:#ff418a;fill-opacity:1;stroke-width:40.8094"
         id="path875" />
      <path
         d="m 85.943497,28.462442 v 17.836719 q 0,4.713721 -2.847087,7.409969 -2.847087,2.696248 -7.824776,2.696248 -4.977689,0 -7.711647,-2.715103 -2.715103,-2.715103 -2.715103,-7.466534 V 28.462442 h 3.20533 V 46.45 q 0,3.450444 1.885488,5.298222 1.885488,1.847779 5.543335,1.847779 3.488154,0 5.373642,-1.847779 1.885488,-1.866633 1.885488,-5.335932 V 28.462442 Z"
         style="font-style:normal;font-variant:normal;font-weight:normal;font-stretch:normal;font-family:'Open Sans';-inkscape-font-specification:'Open Sans';fill:#ff418a;fill-opacity:1;stroke-width:40.8094"
         id="path877" />
      <path
         d="m 116.61497,48.693731 q 0,3.638992 -2.63969,5.67532 -2.63968,2.036327 -7.16485,2.036327 -4.90227,0 -7.541957,-1.263277 V 52.0499 q 1.696937,0.716486 3.695557,1.131293 1.99862,0.414808 3.95953,0.414808 3.20533,0 4.82685,-1.206713 1.62152,-1.225567 1.62152,-3.393879 0,-1.432971 -0.58451,-2.338005 -0.56564,-0.923889 -1.92319,-1.69694 -1.3387,-0.77305 -4.09151,-1.753504 -3.8464,-1.376406 -5.50563,-3.261894 -1.640374,-1.885489 -1.640374,-4.921125 0,-3.186475 2.394574,-5.071963 2.39457,-1.885488 6.33524,-1.885488 4.11036,0 7.5608,1.50839 l -0.9993,2.790523 q -3.41274,-1.432971 -6.63692,-1.432971 -2.54541,0 -3.97838,1.093583 -1.43297,1.093583 -1.43297,3.035636 0,1.432971 0.52793,2.35686 0.52794,0.905035 1.77236,1.678085 1.26328,0.754195 3.8464,1.678084 4.33662,1.546101 5.95814,3.31846 1.64038,1.772359 1.64038,4.600591 z"
         style="font-style:normal;font-variant:normal;font-weight:normal;font-stretch:normal;font-family:'Open Sans';-inkscape-font-specification:'Open Sans';fill:#ff418a;fill-opacity:1;stroke-width:40.8094"
         id="path879" />
      <path
         d="M 130.07192,56.02828 V 28.462442 h 3.20533 V 56.02828 Z"
         style="font-style:normal;font-variant:normal;font-weight:normal;font-stretch:normal;font-family:'Open Sans';-inkscape-font-specification:'Open Sans';fill:#ff418a;fill-opacity:1;stroke-width:40.8094"
         id="path881" />
      <path
         d="m 170.18969,56.02828 h -3.65785 L 151.46679,32.893339 h -0.15084 q 0.30168,4.072655 0.30168,7.466534 V 56.02828 h -2.96022 V 28.462442 h 3.62014 l 15.02734,23.040667 h 0.15084 q -0.0377,-0.509082 -0.16969,-3.261895 -0.13199,-2.771668 -0.0943,-3.959525 V 28.462442 h 2.99793 z"
         style="font-style:normal;font-variant:normal;font-weight:normal;font-stretch:normal;font-family:'Open Sans';-inkscape-font-specification:'Open Sans';fill:#ff418a;fill-opacity:1;stroke-width:40.8094"
         id="path883" />
      <path
         d="M 200.95544,56.02828 H 185.58871 V 28.462442 h 15.36673 v 2.847087 h -12.1614 v 8.88065 h 11.42606 v 2.828232 h -11.42606 v 10.143927 h 12.1614 z"
         style="font-style:normal;font-variant:normal;font-weight:normal;font-stretch:normal;font-family:'Open Sans';-inkscape-font-specification:'Open Sans';fill:#ff418a;fill-opacity:1;stroke-width:40.8094"
         id="path885" />
      <path
         d="m 230.43905,48.693731 q 0,3.638992 -2.63969,5.67532 -2.63968,2.036327 -7.16485,2.036327 -4.90227,0 -7.54196,-1.263277 V 52.0499 q 1.69694,0.716486 3.69556,1.131293 1.99862,0.414808 3.95953,0.414808 3.20533,0 4.82685,-1.206713 1.62152,-1.225567 1.62152,-3.393879 0,-1.432971 -0.5845,-2.338005 -0.56565,-0.923889 -1.9232,-1.69694 -1.3387,-0.77305 -4.09151,-1.753504 -3.8464,-1.376406 -5.50563,-3.261894 -1.64037,-1.885489 -1.64037,-4.921125 0,-3.186475 2.39457,-5.071963 2.39457,-1.885488 6.33524,-1.885488 4.11036,0 7.56081,1.50839 l -0.99931,2.790523 q -3.41274,-1.432971 -6.63692,-1.432971 -2.54541,0 -3.97838,1.093583 -1.43297,1.093583 -1.43297,3.035636 0,1.432971 0.52793,2.35686 0.52794,0.905035 1.77236,1.678085 1.26328,0.754195 3.8464,1.678084 4.33662,1.546101 5.95814,3.31846 1.64038,1.772359 1.64038,4.600591 z"
         style="font-style:normal;font-variant:normal;font-weight:normal;font-stretch:normal;font-family:'Open Sans';-inkscape-font-specification:'Open Sans';fill:#ff418a;fill-opacity:1;stroke-width:40.8094"
         id="path887" />
      <path
         d="m 259.45128,48.693731 q 0,3.638992 -2.63968,5.67532 -2.63968,2.036327 -7.16485,2.036327 -4.90227,0 -7.54196,-1.263277 V 52.0499 q 1.69694,0.716486 3.69556,1.131293 1.99862,0.414808 3.95952,0.414808 3.20533,0 4.82685,-1.206713 1.62152,-1.225567 1.62152,-3.393879 0,-1.432971 -0.5845,-2.338005 -0.56564,-0.923889 -1.9232,-1.69694 -1.33869,-0.77305 -4.0915,-1.753504 -3.8464,-1.376406 -5.50563,-3.261894 -1.64038,-1.885489 -1.64038,-4.921125 0,-3.186475 2.39457,-5.071963 2.39458,-1.885488 6.33525,-1.885488 4.11036,0 7.5608,1.50839 l -0.99931,2.790523 q -3.41273,-1.432971 -6.63691,-1.432971 -2.54541,0 -3.97838,1.093583 -1.43298,1.093583 -1.43298,3.035636 0,1.432971 0.52794,2.35686 0.52794,0.905035 1.77236,1.678085 1.26328,0.754195 3.8464,1.678084 4.33662,1.546101 5.95814,3.31846 1.64037,1.772359 1.64037,4.600591 z"
         style="font-style:normal;font-variant:normal;font-weight:normal;font-stretch:normal;font-family:'Open Sans';-inkscape-font-specification:'Open Sans';fill:#ff418a;fill-opacity:1;stroke-width:40.8094"
         id="path889" />
      <path
         d="M 290.75839,56.02828 V 28.462442 h 3.20533 V 56.02828 Z"
         style="font-style:normal;font-variant:normal;font-weight:normal;font-stretch:normal;font-family:'Open Sans';-inkscape-font-specification:'Open Sans';fill:#ff418a;fill-opacity:1;stroke-width:40.8094"
         id="path891" />
      <path
         d="M 330.87614,56.02828 H 327.2183 L 312.15324,32.893339 h -0.15083 q 0.30167,4.072655 0.30167,7.466534 V 56.02828 h -2.96021 V 28.462442 h 3.62013 l 15.02735,23.040667 h 0.15083 q -0.0377,-0.509082 -0.16969,-3.261895 -0.13198,-2.771668 -0.0943,-3.959525 V 28.462442 h 2.99792 z"
         style="font-style:normal;font-variant:normal;font-weight:normal;font-stretch:normal;font-family:'Open Sans';-inkscape-font-specification:'Open Sans';fill:#ff418a;fill-opacity:1;stroke-width:40.8094"
         id="path893" />
      <path
         d="m 354.75987,56.02828 h -3.20533 V 31.309529 h -8.72981 v -2.847087 h 20.66495 v 2.847087 h -8.72981 z"
         style="font-style:normal;font-variant:normal;font-weight:normal;font-stretch:normal;font-family:'Open Sans';-inkscape-font-specification:'Open Sans';fill:#ff418a;fill-opacity:1;stroke-width:40.8094"
         id="path895" />
      <path
         d="M 390.82382,56.02828 H 375.45709 V 28.462442 h 15.36673 v 2.847087 h -12.1614 v 8.88065 h 11.42606 v 2.828232 h -11.42606 v 10.143927 h 12.1614 z"
         style="font-style:normal;font-variant:normal;font-weight:normal;font-stretch:normal;font-family:'Open Sans';-inkscape-font-specification:'Open Sans';fill:#ff418a;fill-opacity:1;stroke-width:40.8094"
         id="path897" />
      <path
         d="M 404.75216,56.02828 V 28.462442 h 3.20533 v 24.662186 h 12.1614 v 2.903652 z"
         style="font-style:normal;font-variant:normal;font-weight:normal;font-stretch:normal;font-family:'Open Sans';-inkscape-font-specification:'Open Sans';fill:#ff418a;fill-opacity:1;stroke-width:40.8094"
         id="path899" />
      <path
         d="M 432.61425,56.02828 V 28.462442 h 3.20533 v 24.662186 h 12.1614 v 2.903652 z"
         style="font-style:normal;font-variant:normal;font-weight:normal;font-stretch:normal;font-family:'Open Sans';-inkscape-font-specification:'Open Sans';fill:#ff418a;fill-opacity:1;stroke-width:40.8094"
         id="path901" />
      <path
         d="M 460.47634,56.02828 V 28.462442 h 3.20533 V 56.02828 Z"
         style="font-style:normal;font-variant:normal;font-weight:normal;font-stretch:normal;font-family:'Open Sans';-inkscape-font-specification:'Open Sans';fill:#ff418a;fill-opacity:1;stroke-width:40.8094"
         id="path903" />
      <path
         d="m 491.18551,41.58544 h 9.37088 v 13.405822 q -2.18717,0.69763 -4.44975,1.055873 -2.26259,0.358243 -5.24166,0.358243 -6.25982,0 -9.74797,-3.714412 -3.48816,-3.733267 -3.48816,-10.445605 0,-4.298913 1.7158,-7.523098 1.73465,-3.24304 4.97769,-4.939979 3.24304,-1.715794 7.59851,-1.715794 4.41205,0 8.22073,1.621519 l -1.24442,2.828233 q -3.73327,-1.58381 -7.18371,-1.58381 -5.03425,0 -7.86249,2.997926 -2.82823,2.997926 -2.82823,8.315003 0,5.581045 2.7151,8.465842 2.73396,2.884798 8.01333,2.884798 2.86594,0 5.5999,-0.659921 v -8.484698 h -6.16555 z"
         style="font-style:normal;font-variant:normal;font-weight:normal;font-stretch:normal;font-family:'Open Sans';-inkscape-font-specification:'Open Sans';fill:#ff418a;fill-opacity:1;stroke-width:40.8094"
         id="path905" />
      <path
         d="M 530.36053,56.02828 H 514.9938 V 28.462442 h 15.36673 v 2.847087 h -12.1614 v 8.88065 h 11.42606 v 2.828232 h -11.42606 v 10.143927 h 12.1614 z"
         style="font-style:normal;font-variant:normal;font-weight:normal;font-stretch:normal;font-family:'Open Sans';-inkscape-font-specification:'Open Sans';fill:#ff418a;fill-opacity:1;stroke-width:40.8094"
         id="path907" />
      <path
         d="m 565.82112,56.02828 h -3.65785 L 547.09822,32.893339 h -0.15084 q 0.30168,4.072655 0.30168,7.466534 V 56.02828 h -2.96022 V 28.462442 h 3.62014 l 15.02734,23.040667 h 0.15084 q -0.0377,-0.509082 -0.16969,-3.261895 -0.13199,-2.771668 -0.0943,-3.959525 V 28.462442 h 2.99793 z"
         style="font-style:normal;font-variant:normal;font-weight:normal;font-stretch:normal;font-family:'Open Sans';-inkscape-font-specification:'Open Sans';fill:#ff418a;fill-opacity:1;stroke-width:40.8094"
         id="path909" />
      <path
         d="m 593.02334,30.932432 q -4.54403,0 -7.18371,3.035636 -2.62083,3.016781 -2.62083,8.277293 0,5.411352 2.52655,8.371568 2.54541,2.941362 7.24028,2.941362 2.88479,0 6.58035,-1.037019 v 2.809378 q -2.86594,1.074728 -7.07058,1.074728 -6.09013,0 -9.40859,-3.695557 -3.2996,-3.695557 -3.2996,-10.50217 0,-4.261203 1.58381,-7.466533 1.60266,-3.20533 4.60059,-4.939979 3.01678,-1.734649 7.08944,-1.734649 4.33662,0 7.57966,1.58381 l -1.35755,2.752813 q -3.12991,-1.470681 -6.25982,-1.470681 z"
         style="font-style:normal;font-variant:normal;font-weight:normal;font-stretch:normal;font-family:'Open Sans';-inkscape-font-specification:'Open Sans';fill:#ff418a;fill-opacity:1;stroke-width:40.8094"
         id="path911" />
      <path
         d="M 628.76672,56.02828 H 613.39999 V 28.462442 h 15.36673 v 2.847087 h -12.1614 v 8.88065 h 11.42606 v 2.828232 h -11.42606 v 10.143927 h 12.1614 z"
         style="font-style:normal;font-variant:normal;font-weight:normal;font-stretch:normal;font-family:'Open Sans';-inkscape-font-specification:'Open Sans';fill:#ff418a;fill-opacity:1;stroke-width:40.8094"
         id="path913" />
    </g>
    <path
       id="path861"
       style="font-style:normal;font-variant:normal;font-weight:bold;font-stretch:normal;font-size:10.5833px;line-height:1.25;font-family:'Open Sans';-inkscape-font-specification:'Open Sans Bold';white-space:pre;shape-inside:url(#rect1414-2-6);fill:#ffffff;fill-opacity:1;stroke:none;stroke-width:5.74958"
       d="M 47.604089,0.45616528 V 7.5287953 h 0.44998 v -2.72721 c 0,-0.6697 0.13641,-1.15302 0.40912,-1.45 0.27574,-0.30001 0.70902,-0.44996 1.29992,-0.44996 0.43938,0 0.76363,0.1136 0.97272,0.34088 0.20905,0.22423 0.31371,0.58484 0.31371,1.0818 v 3.20447 h 0.4454 v -3.23174 c 0,-1.20302 -0.56056,-1.80455 -1.68176,-1.80455 -0.41818,0 -0.76822,0.0666 -1.05003,0.2 -0.28181,0.13331 -0.51513,0.34845 -0.69998,0.64541 h -0.0317 l 0.023,-0.63173 V 0.45615528 Z M 8.3182498,2.3516153 c -0.7515,0 -1.3409,0.23327 -1.76817,0.69997 -0.42422,0.46363 -0.63632,1.1212 -0.63632,1.9727 0,0.82726 0.23029,1.46664 0.69088,1.91814 0.46059,0.45151 1.10005,0.67729 1.91822,0.67729 0.39696,0 0.73332,-0.0303 1.0090695,-0.091 0.27579,-0.0576 0.5347897,-0.14693 0.7772097,-0.26815 v -1.07271 c -0.29697,0.1394 -0.5818097,0.24087 -0.8545292,0.30453 -0.27272,0.0635 -0.56213,0.0955 -0.86819,0.0955 -0.39393,0 -0.69998,-0.11063 -0.91816,-0.33181 -0.2182,-0.22121 -0.33483,-0.52881 -0.34999,-0.92274 h 3.2771992 v -0.67269 c 0,-0.72119 -0.19996,-1.28636 -0.5999497,-1.69545 -0.4,-0.40908 -0.9591095,-0.61363 -1.6772695,-0.61363 z m 5.1090392,0 c -0.64242,0 -1.13934,0.12429 -1.49085,0.37276 -0.3485,0.24545 -0.52273,0.59393 -0.52273,1.04544 0,0.26365 0.0408,0.48629 0.12274,0.6681 0.0848,0.17877 0.2182,0.33788 0.40003,0.47727 0.18482,0.13941 0.4727,0.29091 0.8636,0.45457 0.27274,0.11521 0.49088,0.21664 0.65452,0.30454 0.16366,0.0848 0.27881,0.16209 0.3455,0.2318 0.0666,0.0666 0.0999,0.15457 0.0999,0.26365 0,0.29087 -0.25158,0.4364 -0.75459,0.4364 -0.24545,0 -0.53028,-0.0409 -0.85453,-0.12274 -0.3212,-0.0818 -0.61053,-0.18332 -0.86811,-0.30453 v 1.14545 c 0.22729,0.097 0.47114,0.16974 0.73174,0.21822 0.26063,0.0515 0.57584,0.0773 0.94552,0.0773 0.7212,0 1.26202,-0.13631 1.62263,-0.40904 0.36362,-0.27272 0.54549,-0.6697 0.54549,-1.1909 0,-0.25151 -0.0439,-0.46818 -0.1318,-0.65 -0.0879,-0.18181 -0.22428,-0.34247 -0.40913,-0.48186 -0.18482,-0.1394 -0.47573,-0.28939 -0.8727,-0.45 -0.44545,-0.17876 -0.73487,-0.31364 -0.8682,-0.40452 -0.13028,-0.091 -0.19541,-0.19848 -0.19541,-0.32272 0,-0.22122 0.20453,-0.33179 0.61363,-0.33179 0.2303,0 0.45607,0.0346 0.67728,0.10446 0.22122,0.0697 0.45902,0.15913 0.71357,0.26822 l 0.41821,-0.99999 c -0.57875,-0.26666 -1.17422,-0.40004 -1.78633,-0.40004 z m -13.22709932,0.0953 2.01815012,5.04537 -0.0818,0.25007 c -0.10297,0.30303 -0.24696,0.52872 -0.4318,0.6772 -0.1818,0.15152 -0.39544,0.22731 -0.6409001,0.22731 -0.19697998,0 -0.37874998,-0.02 -0.54540998,-0.0591 v 1.1 c 0.23028,0.0516 0.46516,0.0773 0.70455008,0.0773 0.48787,0 0.9136,-0.1318 1.27723,-0.39545 0.36667,-0.26364 0.64847,-0.66059 0.84543,-1.1909 l 2.15002,-5.73174 h -1.48634 l -0.94093,2.85907 c -0.097,0.2758 -0.16211,0.56968 -0.19542,0.8818 h -0.027 c -0.0303,-0.33937 -0.0864,-0.63331 -0.16822,-0.8818 l -0.95905,-2.85907 z m 18.19523932,0.0454 c -0.32726,0 -0.60606,0.0743 -0.83634,0.2228 -0.2303,0.14546 -0.44698,0.39999 -0.65001,0.7636 h -0.0317 l -0.0455,-0.89088 h -0.38188 v 4.9408 h 0.44999 v -2.72721 c 0,-0.54545 0.13484,-0.99698 0.40453,-1.35456 0.2697,-0.35759 0.61515,-0.53633 1.03636,-0.53633 0.22121,0 0.43485,0.0255 0.6409,0.0773 l 0.0864,-0.43181 c -0.23941,-0.0424 -0.46362,-0.0637 -0.6727,-0.0637 z m 3.54085,0 c -0.65756,0 -1.18029,0.23789 -1.56816,0.71364 -0.38787,0.47271 -0.58185,1.10301 -0.58185,1.89088 0,0.79695 0.20002,1.41666 0.60003,1.85908 0.40303,0.44243 0.96358,0.66361 1.68176,0.66361 0.28487,0 0.54544,-0.023 0.78179,-0.0681 0.2364,-0.0424 0.49399,-0.12423 0.7728,-0.24546 v -0.40911 c -0.32728,0.1303 -0.59853,0.21515 -0.81367,0.25456 -0.21212,0.0394 -0.4591,0.0592 -0.74092,0.0592 -0.57878,0 -1.02424,-0.17885 -1.33636,-0.5364 -0.30911,-0.35759 -0.46661,-0.8757 -0.47268,-1.55448 h 3.55905 v -0.36364 c 0,-0.69698 -0.1682,-1.24845 -0.50455,-1.6545 -0.33634,-0.40605 -0.79542,-0.60913 -1.37724,-0.60913 z m 4.69081,0 c -0.55757,0 -0.99238,0.10754 -1.3045,0.32273 -0.30911,0.21511 -0.46368,0.50759 -0.46368,0.87728 0,0.23332 0.0501,0.43183 0.15007,0.59545 0.10297,0.16059 0.25451,0.3061 0.4545,0.4364 0.19999,0.12726 0.54702,0.28029 1.04093,0.45907 0.46061,0.16366 0.7909,0.33026 0.99089,0.49995 0.20303,0.16971 0.30453,0.37884 0.30453,0.62733 0,0.26969 -0.12726,0.48628 -0.38182,0.64992 -0.25156,0.16062 -0.62116,0.24099 -1.10902,0.24099 -0.55151,0 -1.07578,-0.12428 -1.57274,-0.37275 v 0.48635 c 0.38787,0.20303 0.91216,0.30454 1.57274,0.30454 0.61817,0 1.09543,-0.11817 1.4318,-0.3545 0.33637,-0.2394 0.50453,-0.58034 0.50453,-1.02275 0,-0.22121 -0.0515,-0.41364 -0.15457,-0.57728 -0.10012,-0.16365 -0.25155,-0.30907 -0.45458,-0.43631 -0.20302,-0.13029 -0.52725,-0.27578 -0.9727,-0.4364 -0.53333,-0.19087 -0.89239,-0.36356 -1.07722,-0.51812 -0.18181,-0.15454 -0.27274,-0.36066 -0.27274,-0.61822 0,-0.23638 0.11817,-0.42119 0.35458,-0.5545 0.23638,-0.13332 0.556,-0.20001 0.95902,-0.20001 0.41515,0 0.86514,0.0999 1.34997,0.30003 l 0.16824,-0.4091 c -0.47879,-0.20001 -0.98487,-0.3 -1.51821,-0.3 z m 4.75453,0 c -0.65756,0 -1.18029,0.23789 -1.56815,0.71364 -0.38788,0.47271 -0.58186,1.10301 -0.58186,1.89088 0,0.79695 0.20002,1.41666 0.60003,1.85908 0.40302,0.44243 0.96361,0.66361 1.68178,0.66361 0.28486,0 0.54541,-0.023 0.78177,-0.0681 0.23638,-0.0424 0.49392,-0.12423 0.77271,-0.24546 v -0.40911 c -0.32727,0.1303 -0.59842,0.21515 -0.81358,0.25456 -0.21213,0.0394 -0.45909,0.0592 -0.7409,0.0592 -0.57879,0 -1.02427,-0.17885 -1.33638,-0.5364 -0.30911,-0.35759 -0.46661,-0.8757 -0.47268,-1.55448 h 3.55903 v -0.36364 c 0,-0.69698 -0.16817,-1.24845 -0.50453,-1.6545 -0.33637,-0.40605 -0.79542,-0.60913 -1.37724,-0.60913 z m 10.12255,0 c -0.32727,0 -0.60605,0.0743 -0.83634,0.2228 -0.23029,0.14546 -0.44697,0.39999 -0.65,0.7636 h -0.0318 l -0.0455,-0.89089 h -0.38195 v 4.94081 h 0.44998 v -2.72721 c 0,-0.54545 0.13484,-0.99698 0.40454,-1.35456 0.26969,-0.35759 0.61514,-0.53633 1.03636,-0.53633 0.2212,0 0.43484,0.0255 0.6409,0.0773 l 0.0864,-0.43181 c -0.23935,-0.0424 -0.46358,-0.0637 -0.67267,-0.0637 z m 3.71809,0 c -0.7212,0 -1.28931,0.22878 -1.70446,0.68637 -0.41513,0.45454 -0.62272,1.09089 -0.62272,1.90905 0,0.79696 0.19996,1.41815 0.59996,1.86361 0.39999,0.44544 0.95302,0.66818 1.65907,0.66818 0.51213,0 0.92574,-0.0773 1.24088,-0.23182 v -0.4182 c -0.38485,0.16063 -0.80148,0.24095 -1.24996,0.24095 -0.56061,0 -0.99698,-0.18792 -1.30911,-0.56366 -0.31212,-0.37879 -0.46816,-0.90152 -0.46816,-1.56817 0,-0.70301 0.1561,-1.24089 0.46816,-1.61362 0.31214,-0.37574 0.7712,-0.56359 1.37726,-0.56359 0.31511,0 0.6864,0.0711 1.11366,0.21357 l 0.12274,-0.39993 c -0.3909,-0.14849 -0.8,-0.2228 -1.22727,-0.2228 z m -8.88167,0.0103 c -0.53028,0 -1.0666,0.12729 -1.60903,0.38184 l 0.16815,0.39086 c 0.49091,-0.25455 0.96514,-0.38176 1.4227,-0.38176 0.42424,0 0.73183,0.11965 0.92275,0.35907 0.19089,0.23936 0.28633,0.59392 0.28633,1.06362 v 0.32729 l -0.94092,0.027 c -0.7606,0.0152 -1.34239,0.15605 -1.74541,0.42269 -0.40001,0.26666 -0.59994,0.64088 -0.59994,1.1227 0,0.43938 0.13481,0.78335 0.40452,1.03183 0.2697,0.24849 0.64693,0.37268 1.13177,0.37268 0.35755,0 0.66665,-0.065 0.92725,-0.19543 0.26364,-0.13332 0.51971,-0.3591 0.76819,-0.67727 h 0.0362 l 0.11361,0.7818 h 0.33187 v -3.2863 c 0,-0.59696 -0.13491,-1.03638 -0.40459,-1.31819 -0.2667,-0.28181 -0.67119,-0.42271 -1.21362,-0.42271 z m -14.40431,0.39093 c 0.43939,0 0.78327,0.16209 1.03176,0.48634 0.24848,0.32122 0.37276,0.76817 0.37276,1.34088 h -3.05451 c 0.0486,-0.5909 0.21668,-1.04244 0.50454,-1.35455 0.28786,-0.31511 0.6697,-0.47267 1.14545,-0.47267 z m 9.44534,0 c 0.43939,0 0.7833,0.16209 1.03177,0.48634 0.24848,0.32122 0.37275,0.76817 0.37275,1.34088 h -3.05451 c 0.0485,-0.5909 0.21669,-1.04244 0.50454,-1.35455 0.28785,-0.31511 0.66971,-0.47267 1.14545,-0.47267 z m -23.0542692,0.44539 c 0.29396,0 0.52732,0.0939 0.70005,0.28185 0.17272,0.18486 0.26209,0.44845 0.26815,0.79088 h -1.94542 c 0.0242,-0.34244 0.11965,-0.60604 0.28634,-0.79088 0.16667,-0.18789 0.39694,-0.28185 0.69088,-0.28185 z m 29.1859692,1.67726 v 0.48636 c 0,0.53635 -0.15303,0.95611 -0.45908,1.25913 -0.30302,0.30004 -0.7182,0.44998 -1.24545,0.44998 -0.34545,0 -0.61366,-0.0849 -0.80456,-0.25456 -0.18789,-0.17274 -0.28172,-0.41365 -0.28172,-0.72273 0,-0.38787 0.14692,-0.67271 0.44088,-0.85453 0.29697,-0.18483 0.79242,-0.29396 1.48634,-0.3273 z" />
  </g>
</svg>
