<?xml version="1.0" encoding="UTF-8" standalone="no"?>
<svg
   xmlns:dc="http://purl.org/dc/elements/1.1/"
   xmlns:cc="http://creativecommons.org/ns#"
   xmlns:rdf="http://www.w3.org/1999/02/22-rdf-syntax-ns#"
   xmlns:svg="http://www.w3.org/2000/svg"
   xmlns="http://www.w3.org/2000/svg"
   xmlns:sodipodi="http://sodipodi.sourceforge.net/DTD/sodipodi-0.dtd"
   xmlns:inkscape="http://www.inkscape.org/namespaces/inkscape"
   width="52mm"
   height="11mm"
   viewBox="0 0 52 11"
   version="1.1"
   id="svg1475"
   inkscape:version="1.0.1 (3bc2e813f5, 2020-09-07)"
   sodipodi:docname="logo.svg">
  <defs
     id="defs1469">
    <rect
       x="-67.04335"
       y="20.797899"
       width="657.41748"
       height="67.388718"
       id="rect971" />
    <rect
       x="-67.04335"
       y="20.797899"
       width="657.41748"
       height="67.388718"
       id="rect998" />
  </defs>
  <sodipodi:namedview
     id="base"
     pagecolor="#ffffff"
     bordercolor="#666666"
     borderopacity="1.0"
     inkscape:pageopacity="0.0"
     inkscape:pageshadow="2"
     inkscape:zoom="5.6"
     inkscape:cx="99.968274"
     inkscape:cy="12.450113"
     inkscape:document-units="mm"
     inkscape:current-layer="layer1"
     inkscape:document-rotation="0"
     showgrid="false"
     units="mm"
     height="73mm"
     inkscape:window-width="1920"
     inkscape:window-height="1001"
     inkscape:window-x="-7"
     inkscape:window-y="-7"
     inkscape:window-maximized="1" />
  <metadata
     id="metadata1472">
    <rdf:RDF>
      <cc:Work
         rdf:about="">
        <dc:format>image/svg+xml</dc:format>
        <dc:type
           rdf:resource="http://purl.org/dc/dcmitype/StillImage" />
        <dc:title></dc:title>
      </cc:Work>
    </rdf:RDF>
  </metadata>
  <g
     inkscape:label="Layer 1"
     inkscape:groupmode="layer"
     id="layer1">
    <path
       id="path918"
       style="font-style:normal;font-variant:normal;font-weight:bold;font-stretch:normal;font-size:10.5833px;line-height:1.25;font-family:'Open Sans';-inkscape-font-specification:'Open Sans Bold';white-space:pre;shape-inside:url(#rect1414-2-6);fill:#e6e6e6;fill-opacity:1;stroke:none;stroke-width:5.74958"
       d="M 47.971524,1.0130682e-5 V 7.1573292 h 0.455368 V 4.3974631 c 0,-0.6777192 0.138043,-1.1668265 0.414019,-1.4673626 0.279042,-0.3036024 0.71751,-0.4553479 1.315485,-0.4553479 0.444642,0 0.772774,0.1149602 0.984368,0.3449617 0.211553,0.226915 0.317466,0.591843 0.317466,1.0947537 v 3.242841 h 0.450734 V 3.8868715 c 0,-1.2174252 -0.567273,-1.8261581 -1.701898,-1.8261581 -0.423187,0 -0.777419,0.067397 -1.062603,0.2023949 -0.285185,0.1349063 -0.521299,0.3526224 -0.708362,0.6531382 h -0.03208 l 0.02328,-0.6392944 V 1.094e-8 Z M 8.2152673,1.9181566 c -0.7604986,0 -1.3569562,0.2360632 -1.7893424,0.7083516 -0.4292997,0.4691816 -0.6439395,1.1346255 -0.6439395,1.9963215 0,0.8371658 0.2330476,1.4842019 0.6991528,1.9411082 0.4661052,0.4569165 1.1132222,0.6854 1.9411891,0.6854 0.4017133,0 0.7421009,-0.030663 1.0211528,-0.09209 C 9.7225725,7.0989579 9.9846738,7.0085585 10.229997,6.885887 V 5.8003325 C 9.9294706,5.9414017 9.6412199,6.0440868 9.3652343,6.108509 9.0892487,6.172769 8.7963732,6.205153 8.4866484,6.205153 8.0880014,6.205153 7.7782867,6.0931983 7.5574942,5.8693698 7.3366814,5.6455106 7.2186549,5.3342273 7.2033133,4.9355803 H 10.519755 V 4.2548354 c 0,-0.7298257 -0.202354,-1.3017631 -0.6071337,-1.7157516 C 9.5078316,2.1251054 8.9420267,1.918106 8.2152673,1.918106 Z m 5.1702167,0 c -0.650113,0 -1.152983,0.1257783 -1.508702,0.3772235 -0.352673,0.2483891 -0.528989,0.6010419 -0.528989,1.0579583 0,0.266807 0.04129,0.492113 0.12421,0.6761 0.08581,0.1809106 0.220812,0.3419258 0.40482,0.4829849 0.187033,0.1410794 0.47836,0.2943934 0.873941,0.4600131 0.276005,0.1165896 0.496758,0.2192341 0.662357,0.3081867 0.16562,0.085815 0.282148,0.1640309 0.349637,0.2345756 0.0674,0.067398 0.101096,0.1564208 0.101096,0.266807 0,0.2943529 -0.254592,0.4416255 -0.763625,0.4416255 -0.248389,0 -0.53663,-0.04139 -0.864763,-0.1242097 C 11.91042,6.016642 11.617626,5.9139064 11.356961,5.791245 v 1.1591659 c 0.230012,0.098161 0.476782,0.1717725 0.740502,0.220833 0.263751,0.052117 0.582736,0.078226 0.956842,0.078226 0.729836,0 1.277132,-0.1379422 1.64206,-0.413938 0.367974,-0.2759856 0.552022,-0.6777191 0.552022,-1.20516 0,-0.2545217 -0.04443,-0.4737861 -0.133378,-0.6577833 C 15.026056,4.7886012 14.888043,4.6260174 14.70098,4.4849583 14.513947,4.3438891 14.219553,4.1921031 13.81783,4.02957 13.367046,3.8486695 13.07416,3.7121744 12.939234,3.6202062 c -0.13184,-0.09209 -0.19775,-0.2008567 -0.19775,-0.3265844 0,-0.2238689 0.206979,-0.3357629 0.620978,-0.3357629 0.233057,0 0.461531,0.035014 0.685389,0.1057108 0.223869,0.070535 0.464517,0.1610355 0.722115,0.2714318 L 15.193184,2.3230374 C 14.607504,2.0531843 14.004903,1.9182072 13.385464,1.9182072 Z M 1.2146e-8,2.0145978 2.0423157,7.120382 1.9595363,7.3734464 C 1.8553333,7.680105 1.7096191,7.9084974 1.5225658,8.0587554 1.3385889,8.2120897 1.1223907,8.2887872 0.87399153,8.2887872 c -0.19933868,0 -0.38328523,-0.02024 -0.55194085,-0.059808 v 1.1131717 c 0.23303742,0.052218 0.47072992,0.078226 0.71298642,0.078226 0.4937119,0 0.9245396,-0.1333782 1.2925238,-0.4001852 C 2.6986215,8.7533947 2.9837958,8.3516915 3.1831143,7.8150315 L 5.358879,2.0146585 H 3.8547413 L 2.9025444,4.9079636 C 2.8043829,5.187066 2.7384933,5.484465 2.7047844,5.8003224 H 2.6774611 C 2.6467983,5.4568887 2.5900265,5.159429 2.5072268,4.9079636 L 1.536693,2.0146585 Z M 18.413113,2.0605414 c -0.331178,0 -0.613317,0.07519 -0.846354,0.2254678 -0.233058,0.1472018 -0.452332,0.4047796 -0.657793,0.7727435 h -0.03208 l -0.04604,-0.9015475 h -0.386453 v 4.9999621 h 0.455379 V 4.3973011 c 0,-0.5519813 0.136454,-1.008918 0.409374,-1.3707797 0.272929,-0.3618719 0.622516,-0.5427522 1.048769,-0.5427522 0.223859,0 0.440057,0.025805 0.648575,0.078226 l 0.08743,-0.4369806 c -0.242277,-0.042908 -0.469171,-0.064463 -0.680755,-0.064463 z m 3.583249,0 c -0.665433,0 -1.194423,0.2407385 -1.586937,0.7221853 -0.392515,0.4783703 -0.588817,1.1162176 -0.588817,1.9135217 0,0.8064929 0.202415,1.4336234 0.607215,1.881341 0.407855,0.4477278 0.975118,0.6715562 1.701897,0.6715562 0.288281,0 0.551971,-0.023275 0.791152,-0.068915 0.23923,-0.042908 0.499905,-0.1257176 0.782053,-0.2483992 V 6.5178222 c -0.331199,0.1318603 -0.605697,0.2177263 -0.823413,0.2576082 -0.21466,0.039872 -0.464597,0.059909 -0.749792,0.059909 -0.58571,0 -1.036504,-0.1809916 -1.352362,-0.542823 -0.312811,-0.3618718 -0.472197,-0.8861858 -0.47834,-1.5730936 h 3.601667 V 4.3514284 c 0,-0.7053258 -0.170214,-1.2633992 -0.510591,-1.6743114 C 23.049726,2.2662049 22.585149,2.0606932 21.996362,2.0606932 Z m 4.746979,0 c -0.564246,0 -1.004263,0.1088277 -1.32012,0.3265944 -0.312812,0.2176858 -0.469233,0.513668 -0.469233,0.8877848 0,0.2361138 0.0507,0.4370008 0.151867,0.60258 0.104203,0.1625129 0.257558,0.3097653 0.459943,0.4416255 0.202384,0.1287839 0.55357,0.2836463 1.053394,0.464567 0.466125,0.1656197 0.80037,0.3342146 1.002755,0.5059365 0.205461,0.1717422 0.308177,0.3833763 0.308177,0.6348418 0,0.2729193 -0.128784,0.4921028 -0.386392,0.6577023 -0.254573,0.1625433 -0.628598,0.2438756 -1.1223,0.2438756 -0.558114,0 -1.088662,-0.1257681 -1.591572,-0.3772133 v 0.4921736 c 0.392514,0.2054611 0.923082,0.3081866 1.591572,0.3081866 0.625572,0 1.108547,-0.119585 1.448945,-0.3587448 0.340397,-0.2422666 0.510571,-0.5872891 0.510571,-1.0349966 0,-0.2238588 -0.05212,-0.418593 -0.156421,-0.5841925 C 28.123208,5.1056527 27.969965,4.9584914 27.764504,4.8297278 27.559053,4.6978777 27.230941,4.5506456 26.780157,4.3881023 26.24044,4.1949468 25.877081,4.020189 25.690038,3.8637782 25.506051,3.7073877 25.414032,3.4987996 25.414032,3.2381555 c 0,-0.2392104 0.119585,-0.4262334 0.358826,-0.5611397 0.23921,-0.1349164 0.562657,-0.2024049 0.970503,-0.2024049 0.420121,0 0.8755,0.1010962 1.366135,0.3036226 L 28.279751,2.3642349 C 27.795227,2.1618299 27.283088,2.0606426 26.743361,2.0606426 Z m 4.811462,0 c -0.665434,0 -1.194423,0.2407385 -1.586928,0.7221853 -0.392524,0.4783703 -0.588827,1.1162176 -0.588827,1.9135217 0,0.8064929 0.202415,1.4336234 0.607215,1.881341 0.407846,0.4477278 0.975148,0.6715562 1.701918,0.6715562 0.288271,0 0.551941,-0.023275 0.791131,-0.068915 0.23921,-0.042908 0.499834,-0.1257176 0.781963,-0.2483992 V 6.5178222 c -0.331189,0.1318603 -0.605586,0.2177263 -0.823322,0.2576082 -0.214671,0.039872 -0.464588,0.059909 -0.749772,0.059909 -0.585721,0 -1.036535,-0.1809916 -1.352382,-0.542823 -0.312812,-0.3618718 -0.472197,-0.8861858 -0.47834,-1.5730936 h 3.601646 V 4.3514284 c 0,-0.7053258 -0.170183,-1.2633992 -0.510571,-1.6743114 C 32.608136,2.2662049 32.14359,2.0606932 31.554803,2.0606932 Z m 10.243759,0 c -0.331189,0 -0.613307,0.07519 -0.846354,0.2254678 -0.233048,0.1472018 -0.452322,0.4047796 -0.657784,0.7727435 h -0.03218 L 40.216204,2.1571951 H 39.82968 v 4.9999722 h 0.455368 V 4.3973011 c 0,-0.5519813 0.136455,-1.008918 0.409384,-1.3707797 0.27292,-0.3618719 0.622506,-0.5427522 1.04877,-0.5427522 0.223849,0 0.440047,0.025805 0.648574,0.078226 l 0.08743,-0.4369806 C 42.23699,2.0821066 42.010075,2.0605515 41.798481,2.0605515 Z m 3.762611,0 c -0.729836,0 -1.304748,0.2315195 -1.724869,0.6945887 -0.420101,0.4599828 -0.630177,1.1039526 -0.630177,1.9319094 0,0.8065029 0.202355,1.4351312 0.607144,1.8859252 0.40478,0.4507738 0.964432,0.6761809 1.678936,0.6761809 0.518263,0 0.936825,-0.078226 1.255739,-0.2345958 V 6.5913422 c -0.389458,0.1625534 -0.811077,0.2438352 -1.264927,0.2438352 -0.567323,0 -1.008919,-0.1901702 -1.324786,-0.5704094 -0.315857,-0.3833257 -0.473766,-0.912315 -0.473766,-1.5869476 0,-0.711428 0.157969,-1.2557487 0.473766,-1.6329418 0.315878,-0.3802392 0.780434,-0.5703386 1.393752,-0.5703386 0.318883,0 0.694619,0.071951 1.126995,0.2161274 L 46.803189,2.2859485 C 46.407609,2.1356805 45.99361,2.0604807 45.561224,2.0604807 Z m -8.988021,0.010423 c -0.536629,0 -1.079371,0.1288142 -1.628296,0.3864123 l 0.170163,0.3955402 c 0.496788,-0.257598 0.976697,-0.3863313 1.439736,-0.3863313 0.42932,0 0.740593,0.1210827 0.933799,0.3633696 0.193176,0.2422261 0.289758,0.6010317 0.289758,1.076356 v 0.331209 l -0.952186,0.027323 c -0.769708,0.015382 -1.358464,0.1579186 -1.76631,0.4277514 -0.4048,0.2698531 -0.607124,0.648554 -0.607124,1.1361434 0,0.4446413 0.136424,0.79273 0.409364,1.0441854 0.272929,0.2514655 0.654676,0.3771425 1.145322,0.3771425 0.361831,0 0.674632,-0.065778 0.938353,-0.1977701 0.266797,-0.1349164 0.525933,-0.3633999 0.777388,-0.6853798 h 0.03663 l 0.11497,0.7911615 h 0.335844 V 3.8324273 c 0,-0.6041082 -0.136525,-1.0487899 -0.409435,-1.3339743 C 37.531239,2.2132685 37.121906,2.0706814 36.57298,2.0706814 Z m -14.57679,0.3956111 c 0.444652,0 0.792649,0.1640309 1.044115,0.4921635 0.251455,0.3250664 0.377223,0.7773683 0.377223,1.356936 h -3.091085 c 0.04918,-0.5979756 0.219275,-1.0549224 0.510581,-1.3707696 0.291307,-0.3188832 0.67772,-0.4783299 1.159166,-0.4783299 z m 9.558441,0 c 0.444651,0 0.792679,0.1640309 1.044124,0.4921635 0.251456,0.3250664 0.377214,0.7773683 0.377214,1.356936 H 29.885055 C 29.934136,3.7176997 30.10434,3.2607529 30.395637,2.9449057 30.686934,2.6260225 31.073366,2.4665758 31.554803,2.4665755 Z M 8.2244763,2.917299 c 0.2974799,0 0.5336342,0.095024 0.7084325,0.2852249 0.1747882,0.1870736 0.2652283,0.4538199 0.2713609,0.8003502 H 7.2355548 C 7.2600446,3.6563336 7.3566375,3.3895772 7.5253235,3.2025239 7.6939893,3.0123841 7.9270166,2.917299 8.2244763,2.917299 Z M 37.759925,4.6146428 v 0.4921838 c 0,0.5427724 -0.154863,0.9675587 -0.464577,1.2742071 -0.306649,0.3036327 -0.7268,0.4553681 -1.260363,0.4553681 -0.349587,0 -0.621009,-0.085917 -0.814194,-0.2576081 -0.19014,-0.1748084 -0.285094,-0.4186031 -0.285094,-0.7313841 0,-0.3925145 0.148679,-0.6807652 0.446159,-0.8647623 0.300526,-0.1870432 0.801909,-0.29748 1.504138,-0.3312192 z" />
    <g
       aria-label="BUSINESS INTELLIGENCE"
       transform="matrix(0.06674023,0,0,0.06674023,19.710318,6.549819)"
       id="text969"
       style="font-style:normal;font-weight:normal;font-size:38.6148px;line-height:1.25;font-family:sans-serif;text-align:center;white-space:pre;shape-inside:url(#rect971);fill:#ff418a;fill-opacity:1;stroke:none;stroke-width:37.3027">
      <path
         d="m 42.355449,28.462442 h 7.787067 q 5.48677,0 7.937905,1.640375 2.451135,1.640375 2.451135,5.185093 0,2.451134 -1.376407,4.053799 -1.357551,1.58381 -3.97838,2.055183 v 0.188548 q 6.278676,1.074729 6.278676,6.599209 0,3.695557 -2.507699,5.769594 -2.488845,2.074037 -6.976307,2.074037 h -9.61599 z m 3.20533,11.803157 h 5.279367 q 3.393879,0 4.883415,-1.055874 1.489535,-1.074728 1.489535,-3.601282 0,-2.319151 -1.659229,-3.337315 Q 53.894637,31.23411 50.2745,31.23411 h -4.713721 z m 0,2.715103 v 10.31362 h 5.750739 q 3.337314,0 5.015399,-1.282132 1.696939,-1.300987 1.696939,-4.053799 0,-2.564264 -1.734649,-3.770977 -1.715794,-1.206712 -5.241657,-1.206712 z"
         style="font-style:normal;font-variant:normal;font-weight:normal;font-stretch:normal;font-family:'Open Sans';-inkscape-font-specification:'Open Sans';stroke-width:37.3027"
         id="path838" />
      <path
         d="m 88.191669,28.462442 v 17.836719 q 0,4.713721 -2.847087,7.409969 -2.847088,2.696248 -7.824777,2.696248 -4.977689,0 -7.711647,-2.715103 -2.715103,-2.715103 -2.715103,-7.466534 V 28.462442 h 3.20533 V 46.45 q 0,3.450444 1.885489,5.298222 1.885488,1.847779 5.543335,1.847779 3.488153,0 5.373642,-1.847779 1.885488,-1.866633 1.885488,-5.335932 V 28.462442 Z"
         style="font-style:normal;font-variant:normal;font-weight:normal;font-stretch:normal;font-family:'Open Sans';-inkscape-font-specification:'Open Sans';stroke-width:37.3027"
         id="path840" />
      <path
         d="m 111.04379,48.693731 q 0,3.638992 -2.63969,5.67532 -2.63968,2.036327 -7.16485,2.036327 -4.902271,0 -7.541954,-1.263277 V 52.0499 q 1.696939,0.716486 3.695557,1.131293 1.998617,0.414808 3.959527,0.414808 3.20533,0 4.82685,-1.206713 1.62152,-1.225567 1.62152,-3.393879 0,-1.432971 -0.5845,-2.338005 -0.56565,-0.923889 -1.9232,-1.69694 -1.3387,-0.77305 -4.09151,-1.753504 -3.846397,-1.376406 -5.505627,-3.261894 -1.640375,-1.885489 -1.640375,-4.921125 0,-3.186475 2.394571,-5.071963 2.39457,-1.885488 6.335241,-1.885488 4.11036,0 7.56081,1.50839 l -0.99931,2.790523 q -3.41274,-1.432971 -6.63692,-1.432971 -2.54541,0 -3.978381,1.093583 -1.432971,1.093583 -1.432971,3.035636 0,1.432971 0.527937,2.35686 0.527937,0.905035 1.772359,1.678085 1.263276,0.754195 3.846396,1.678084 4.33662,1.546101 5.95814,3.31846 1.64038,1.772359 1.64038,4.600591 z"
         style="font-style:normal;font-variant:normal;font-weight:normal;font-stretch:normal;font-family:'Open Sans';-inkscape-font-specification:'Open Sans';stroke-width:37.3027"
         id="path842" />
      <path
         d="M 116.6814,56.02828 V 28.462442 h 3.20533 V 56.02828 Z"
         style="font-style:normal;font-variant:normal;font-weight:normal;font-stretch:normal;font-family:'Open Sans';-inkscape-font-specification:'Open Sans';stroke-width:37.3027"
         id="path844" />
      <path
         d="m 148.97981,56.02828 h -3.65785 L 130.25691,32.893339 h -0.15084 q 0.30168,4.072655 0.30168,7.466534 V 56.02828 h -2.96021 V 28.462442 h 3.62013 l 15.02734,23.040667 h 0.15084 q -0.0377,-0.509082 -0.16969,-3.261895 -0.13198,-2.771668 -0.0943,-3.959525 V 28.462442 h 2.99792 z"
         style="font-style:normal;font-variant:normal;font-weight:normal;font-stretch:normal;font-family:'Open Sans';-inkscape-font-specification:'Open Sans';stroke-width:37.3027"
         id="path846" />
      <path
         d="M 171.9262,56.02828 H 156.55947 V 28.462442 h 15.36673 v 2.847087 h -12.1614 v 8.88065 h 11.42606 v 2.828232 H 159.7648 v 10.143927 h 12.1614 z"
         style="font-style:normal;font-variant:normal;font-weight:normal;font-stretch:normal;font-family:'Open Sans';-inkscape-font-specification:'Open Sans';stroke-width:37.3027"
         id="path848" />
      <path
         d="m 193.59046,48.693731 q 0,3.638992 -2.63968,5.67532 -2.63969,2.036327 -7.16486,2.036327 -4.90227,0 -7.54195,-1.263277 V 52.0499 q 1.69694,0.716486 3.69556,1.131293 1.99861,0.414808 3.95952,0.414808 3.20533,0 4.82685,-1.206713 1.62152,-1.225567 1.62152,-3.393879 0,-1.432971 -0.5845,-2.338005 -0.56565,-0.923889 -1.9232,-1.69694 -1.3387,-0.77305 -4.09151,-1.753504 -3.84639,-1.376406 -5.50562,-3.261894 -1.64038,-1.885489 -1.64038,-4.921125 0,-3.186475 2.39457,-5.071963 2.39457,-1.885488 6.33524,-1.885488 4.11037,0 7.56081,1.50839 l -0.99931,2.790523 q -3.41273,-1.432971 -6.63692,-1.432971 -2.54541,0 -3.97838,1.093583 -1.43297,1.093583 -1.43297,3.035636 0,1.432971 0.52794,2.35686 0.52793,0.905035 1.77236,1.678085 1.26327,0.754195 3.84639,1.678084 4.33663,1.546101 5.95815,3.31846 1.64037,1.772359 1.64037,4.600591 z"
         style="font-style:normal;font-variant:normal;font-weight:normal;font-stretch:normal;font-family:'Open Sans';-inkscape-font-specification:'Open Sans';stroke-width:37.3027"
         id="path850" />
      <path
         d="m 214.78335,48.693731 q 0,3.638992 -2.63969,5.67532 -2.63968,2.036327 -7.16485,2.036327 -4.90227,0 -7.54196,-1.263277 V 52.0499 q 1.69694,0.716486 3.69556,1.131293 1.99862,0.414808 3.95953,0.414808 3.20533,0 4.82685,-1.206713 1.62152,-1.225567 1.62152,-3.393879 0,-1.432971 -0.5845,-2.338005 -0.56565,-0.923889 -1.9232,-1.69694 -1.3387,-0.77305 -4.09151,-1.753504 -3.8464,-1.376406 -5.50563,-3.261894 -1.64037,-1.885489 -1.64037,-4.921125 0,-3.186475 2.39457,-5.071963 2.39457,-1.885488 6.33524,-1.885488 4.11036,0 7.56081,1.50839 l -0.99931,2.790523 q -3.41274,-1.432971 -6.63692,-1.432971 -2.54541,0 -3.97838,1.093583 -1.43297,1.093583 -1.43297,3.035636 0,1.432971 0.52793,2.35686 0.52794,0.905035 1.77236,1.678085 1.26328,0.754195 3.8464,1.678084 4.33662,1.546101 5.95814,3.31846 1.64038,1.772359 1.64038,4.600591 z"
         style="font-style:normal;font-variant:normal;font-weight:normal;font-stretch:normal;font-family:'Open Sans';-inkscape-font-specification:'Open Sans';stroke-width:37.3027"
         id="path852" />
      <path
         d="M 230.45176,56.02828 V 28.462442 h 3.20533 V 56.02828 Z"
         style="font-style:normal;font-variant:normal;font-weight:normal;font-stretch:normal;font-family:'Open Sans';-inkscape-font-specification:'Open Sans';stroke-width:37.3027"
         id="path854" />
      <path
         d="m 262.75018,56.02828 h -3.65785 L 244.02728,32.893339 h -0.15084 q 0.30168,4.072655 0.30168,7.466534 V 56.02828 h -2.96021 V 28.462442 h 3.62013 l 15.02735,23.040667 h 0.15083 q -0.0377,-0.509082 -0.16969,-3.261895 -0.13198,-2.771668 -0.0943,-3.959525 V 28.462442 h 2.99792 z"
         style="font-style:normal;font-variant:normal;font-weight:normal;font-stretch:normal;font-family:'Open Sans';-inkscape-font-specification:'Open Sans';stroke-width:37.3027"
         id="path856" />
      <path
         d="m 278.81454,56.02828 h -3.20533 V 31.309529 h -8.72981 v -2.847087 h 20.66495 v 2.847087 h -8.72981 z"
         style="font-style:normal;font-variant:normal;font-weight:normal;font-stretch:normal;font-family:'Open Sans';-inkscape-font-specification:'Open Sans';stroke-width:37.3027"
         id="path858" />
      <path
         d="M 307.05915,56.02828 H 291.69242 V 28.462442 h 15.36673 v 2.847087 h -12.1614 v 8.88065 h 11.42606 v 2.828232 h -11.42606 v 10.143927 h 12.1614 z"
         style="font-style:normal;font-variant:normal;font-weight:normal;font-stretch:normal;font-family:'Open Sans';-inkscape-font-specification:'Open Sans';stroke-width:37.3027"
         id="path860" />
      <path
         d="M 313.16813,56.02828 V 28.462442 h 3.20533 v 24.662186 h 12.1614 v 2.903652 z"
         style="font-style:normal;font-variant:normal;font-weight:normal;font-stretch:normal;font-family:'Open Sans';-inkscape-font-specification:'Open Sans';stroke-width:37.3027"
         id="path862" />
      <path
         d="M 333.21086,56.02828 V 28.462442 h 3.20533 v 24.662186 h 12.1614 v 2.903652 z"
         style="font-style:normal;font-variant:normal;font-weight:normal;font-stretch:normal;font-family:'Open Sans';-inkscape-font-specification:'Open Sans';stroke-width:37.3027"
         id="path864" />
      <path
         d="M 353.25361,56.02828 V 28.462442 h 3.20533 V 56.02828 Z"
         style="font-style:normal;font-variant:normal;font-weight:normal;font-stretch:normal;font-family:'Open Sans';-inkscape-font-specification:'Open Sans';stroke-width:37.3027"
         id="path866" />
      <path
         d="m 376.14345,41.58544 h 9.37087 v 13.405822 q -2.18716,0.69763 -4.44975,1.055873 -2.26259,0.358243 -5.24166,0.358243 -6.25982,0 -9.74797,-3.714412 -3.48816,-3.733267 -3.48816,-10.445605 0,-4.298913 1.7158,-7.523098 1.73465,-3.24304 4.97769,-4.939979 3.24304,-1.715794 7.59852,-1.715794 4.41204,0 8.22072,1.621519 l -1.24442,2.828233 q -3.73326,-1.58381 -7.18371,-1.58381 -5.03425,0 -7.86248,2.997926 -2.82824,2.997926 -2.82824,8.315003 0,5.581045 2.71511,8.465842 2.73395,2.884798 8.01332,2.884798 2.86594,0 5.5999,-0.659921 v -8.484698 h -6.16554 z"
         style="font-style:normal;font-variant:normal;font-weight:normal;font-stretch:normal;font-family:'Open Sans';-inkscape-font-specification:'Open Sans';stroke-width:37.3027"
         id="path868" />
      <path
         d="M 407.49909,56.02828 H 392.13237 V 28.462442 h 15.36672 v 2.847087 H 395.3377 v 8.88065 h 11.42605 v 2.828232 H 395.3377 v 10.143927 h 12.16139 z"
         style="font-style:normal;font-variant:normal;font-weight:normal;font-stretch:normal;font-family:'Open Sans';-inkscape-font-specification:'Open Sans';stroke-width:37.3027"
         id="path870" />
      <path
         d="m 435.14038,56.02828 h -3.65785 L 416.41748,32.893339 h -0.15084 q 0.30168,4.072655 0.30168,7.466534 V 56.02828 H 413.6081 V 28.462442 h 3.62014 l 15.02734,23.040667 h 0.15084 q -0.0377,-0.509082 -0.16969,-3.261895 -0.13199,-2.771668 -0.0943,-3.959525 V 28.462442 h 2.99793 z"
         style="font-style:normal;font-variant:normal;font-weight:normal;font-stretch:normal;font-family:'Open Sans';-inkscape-font-specification:'Open Sans';stroke-width:37.3027"
         id="path872" />
      <path
         d="m 454.5232,30.932432 q -4.54403,0 -7.18371,3.035636 -2.62083,3.016781 -2.62083,8.277293 0,5.411352 2.52655,8.371568 2.54541,2.941362 7.24028,2.941362 2.8848,0 6.58035,-1.037019 v 2.809378 q -2.86594,1.074728 -7.07058,1.074728 -6.09012,0 -9.40858,-3.695557 -3.29961,-3.695557 -3.29961,-10.50217 0,-4.261203 1.58381,-7.466533 1.60267,-3.20533 4.60059,-4.939979 3.01678,-1.734649 7.08944,-1.734649 4.33662,0 7.57966,1.58381 l -1.35755,2.752813 q -3.12991,-1.470681 -6.25982,-1.470681 z"
         style="font-style:normal;font-variant:normal;font-weight:normal;font-stretch:normal;font-family:'Open Sans';-inkscape-font-specification:'Open Sans';stroke-width:37.3027"
         id="path874" />
      <path
         d="M 482.44728,56.02828 H 467.08055 V 28.462442 h 15.36673 v 2.847087 h -12.1614 v 8.88065 h 11.42606 v 2.828232 h -11.42606 v 10.143927 h 12.1614 z"
         style="font-style:normal;font-variant:normal;font-weight:normal;font-stretch:normal;font-family:'Open Sans';-inkscape-font-specification:'Open Sans';stroke-width:37.3027"
         id="path876" />
    </g>
  </g>
</svg>
